<svg width="28" height="28" viewBox="0 0 28 28" fill="none" xmlns="http://www.w3.org/2000/svg">
<rect width="28" height="28" rx="14" fill="#FF9900"/>
<path d="M8.55526 8.66683H11.5486L12.5133 11.0788L10.9633 12.1122C10.872 12.1731 10.7971 12.2555 10.7454 12.3523C10.6936 12.4491 10.6666 12.5571 10.6666 12.6668C10.6686 12.7295 10.6666 12.6675 10.6666 12.6675V12.6815C10.667 12.7113 10.6683 12.7411 10.6706 12.7708C10.6746 12.8255 10.6813 12.8995 10.6939 12.9908C10.7199 13.1708 10.7699 13.4188 10.8673 13.7108C11.0633 14.2975 11.4473 15.0568 12.1953 15.8048C12.9433 16.5528 13.7026 16.9368 14.2886 17.1328C14.5813 17.2302 14.8286 17.2795 15.0099 17.3062C15.1123 17.3205 15.2153 17.3294 15.3186 17.3328L15.3273 17.3335H15.3326C15.3326 17.3335 15.4073 17.3295 15.3333 17.3335C15.457 17.3334 15.5783 17.2989 15.6836 17.2338C15.7889 17.1687 15.8739 17.0756 15.9293 16.9648L16.3759 16.0715L19.3333 16.5648V19.4448C17.9259 19.6482 14.1246 19.8488 11.1379 16.8622C8.15126 13.8755 8.35126 10.0735 8.55526 8.66683ZM12.0486 12.9908L13.2533 12.1882C13.5078 12.0184 13.6961 11.7663 13.7868 11.4741C13.8775 11.182 13.8649 10.8675 13.7513 10.5835L12.7866 8.1715C12.6876 7.9241 12.5168 7.71204 12.2961 7.56267C12.0754 7.4133 11.8151 7.33348 11.5486 7.3335H8.52059C7.91459 7.3335 7.34459 7.75416 7.24526 8.4115C7.01859 9.90616 6.71126 14.3208 10.1953 17.8048C13.6793 21.2888 18.0939 20.9808 19.5886 20.7548C20.2459 20.6548 20.6666 20.0855 20.6666 19.4795V16.5648C20.6666 16.2492 20.5547 15.9438 20.3507 15.7029C20.1467 15.4621 19.8639 15.3014 19.5526 15.2495L16.5953 14.7568C16.314 14.7099 16.0251 14.7543 15.7709 14.8837C15.5168 15.013 15.3108 15.2205 15.1833 15.4755L14.9526 15.9375C14.871 15.9174 14.7903 15.8941 14.7106 15.8675C14.2973 15.7302 13.7233 15.4475 13.1379 14.8622C12.5526 14.2768 12.2699 13.7028 12.1326 13.2888C12.0998 13.191 12.072 13.0915 12.0493 12.9908H12.0486Z" fill="white"/>
</svg>
