<svg width="41" height="40" viewBox="0 0 41 40" fill="none" xmlns="http://www.w3.org/2000/svg">
<rect x="0.5" width="40" height="40" rx="20" fill="#FFF8EC"/>
<g clip-path="url(#clip0_161_4750)">
<path d="M18.1447 21.4841C18.3064 21.6325 18.3946 21.8311 18.4082 22.0356C18.4219 22.2426 18.3577 22.4556 18.2145 22.6272C18.3525 22.5172 18.5201 22.4604 18.6899 22.4556C18.8932 22.4497 19.1003 22.5187 19.2623 22.6597C19.2646 22.6616 19.2719 22.6686 19.2837 22.6796L19.1475 22.8258L19.2845 22.6793C19.2904 22.6848 19.2956 22.6907 19.3007 22.6966C19.455 22.8491 19.534 23.0465 19.5406 23.2481C19.5469 23.4308 19.4934 23.616 19.3823 23.7729C19.479 23.7227 19.5853 23.6947 19.6927 23.6895C19.8813 23.6799 20.0755 23.7401 20.2294 23.8685C20.2371 23.8748 20.2441 23.8811 20.2504 23.8866C20.4076 24.0272 20.4907 24.2162 20.5014 24.4103C20.5121 24.6052 20.4497 24.8057 20.315 24.9669L19.9529 25.4014C20.023 25.4438 20.0939 25.4874 20.1652 25.5313C20.903 25.986 21.729 26.495 22.3469 25.7568L20.8587 24.6355L21.2204 24.156L22.8204 25.3619L22.964 25.3283L22.9924 25.3235C23.1951 25.2962 23.3501 25.2194 23.4619 25.0976C23.5531 24.998 23.6218 24.864 23.6694 24.6982L21.6463 23.3344L21.9826 22.8361L24.0968 24.2616C24.3459 24.1974 24.5412 24.1051 24.6826 23.9848C24.7881 23.8951 24.8653 23.7866 24.9143 23.6589L22.3724 21.8403L22.7201 21.3516L25.3713 23.2484C25.5374 23.2455 25.6799 23.196 25.7939 23.1163C25.8958 23.045 25.9785 22.9483 26.0383 22.8372C26.0992 22.7243 26.1357 22.5977 26.1446 22.4689C26.1567 22.291 26.1165 22.1112 26.0146 21.9606C25.9781 21.9473 25.9438 21.9267 25.9142 21.8994C25.0561 21.1885 24.216 20.5496 23.3394 19.9963C22.4764 19.4522 21.5733 18.9872 20.5745 18.6129C20.4187 18.6181 20.284 18.617 20.1674 18.6159C19.7824 18.6122 19.6927 18.6114 19.4063 19.1728C19.1929 19.5903 18.9135 19.9029 18.5566 20.0745C18.2182 20.2373 17.8243 20.2679 17.3685 20.1354C16.6938 19.9394 16.5358 19.7782 16.6546 19.3696C16.6871 19.2574 16.7484 19.1477 16.8289 19.0038C16.8499 18.9661 16.8724 18.9252 16.9282 18.8207C17.2777 18.1626 17.5829 17.6326 17.8815 17.2081C17.57 17.1723 17.3194 17.1217 17.0736 17.0468C16.8016 16.9641 16.5498 16.8564 16.2387 16.7084L14.0975 20.5629L14.9431 21.4376L15.265 21.0663C15.4119 20.8973 15.6127 20.7991 15.8201 20.7795C16.0272 20.76 16.2405 20.8179 16.4129 20.9607C16.4162 20.9633 16.4144 20.9622 16.4269 20.9733C16.5912 21.1158 16.6868 21.3125 16.7067 21.5155C16.7207 21.6569 16.6982 21.8016 16.6369 21.933L16.964 21.5498L16.9636 21.5495C16.9654 21.5472 16.9676 21.545 16.9695 21.5428V21.5424C16.9739 21.5373 16.9787 21.5325 16.9839 21.5277C17.1308 21.3679 17.3286 21.2808 17.5313 21.2678C17.7391 21.2545 17.9528 21.3191 18.1222 21.4638L18.1226 21.4635C18.1251 21.4657 18.1274 21.4679 18.1296 21.4697C18.1351 21.4742 18.1399 21.479 18.1447 21.4841ZM19.5646 25.8672L19.1904 26.316C19.1845 26.323 19.1789 26.3297 19.1734 26.3356C19.0368 26.4884 18.8493 26.5692 18.6574 26.5788C18.4691 26.588 18.275 26.5283 18.1207 26.3994C18.1133 26.3932 18.1063 26.3873 18.1 26.3817C17.9428 26.2407 17.8594 26.0521 17.8487 25.8576C17.8406 25.71 17.8745 25.559 17.9506 25.4243L17.9107 25.4697C17.9059 25.4756 17.9096 25.4704 17.8915 25.49C17.7413 25.6502 17.539 25.7325 17.3334 25.738C17.1301 25.7439 16.9226 25.6749 16.7606 25.5339C16.7565 25.5302 16.7525 25.5265 16.7484 25.5225C16.7447 25.5191 16.7418 25.5162 16.7388 25.5136L16.7384 25.514C16.7329 25.5088 16.7274 25.5029 16.7226 25.497C16.5683 25.3446 16.4889 25.1471 16.4823 24.9456C16.4779 24.8064 16.5078 24.6654 16.5716 24.537C16.4343 24.6547 16.2653 24.7197 16.0925 24.7307C15.8851 24.744 15.6714 24.6791 15.5016 24.5344L15.5012 24.5347C15.499 24.5329 15.4964 24.5307 15.4942 24.5285C15.489 24.524 15.4839 24.5192 15.4791 24.5144C15.3178 24.3661 15.2292 24.1671 15.2159 23.963C15.2019 23.753 15.2676 23.5371 15.4152 23.3643L15.5293 23.2303C15.4016 23.3296 15.2502 23.388 15.0956 23.4027C14.8885 23.4223 14.6752 23.364 14.5028 23.2215H14.5024C14.498 23.2178 14.4936 23.2137 14.4892 23.2097L14.4884 23.2089C14.3245 23.0665 14.2289 22.8697 14.209 22.6667C14.1887 22.4619 14.2452 22.2504 14.3851 22.081C14.3888 22.0762 14.3928 22.0717 14.3969 22.0677L14.3972 22.0673L14.5486 21.8927L13.6413 20.9537L13.2722 21.5879L13.2711 21.5901L13.266 21.5986L13.2637 21.6011C13.1416 21.8019 12.9489 21.9337 12.7363 21.985C12.5255 22.0359 12.2945 22.0086 12.0952 21.8924L12.093 21.8902L12.0841 21.885L12.0815 21.8835L10.9141 21.1756C10.7103 21.0519 10.5774 20.8582 10.525 20.6441C10.4726 20.4307 10.5007 20.1967 10.6191 19.9934L14.319 13.6389L14.3201 13.6364L14.3253 13.6279L14.3275 13.6257C14.4493 13.4245 14.6423 13.2931 14.8549 13.2418C15.0657 13.1909 15.2964 13.2182 15.496 13.3344L15.4983 13.3355L15.5071 13.3407L15.5093 13.3429L16.6772 14.0512C16.8805 14.1745 17.0138 14.3683 17.0662 14.5824C17.1182 14.7961 17.0902 15.0297 16.9717 15.2335L16.4439 16.1403C16.761 16.2924 17.0049 16.3998 17.2474 16.4736C17.539 16.5626 17.8524 16.612 18.3208 16.6453L18.3197 16.6571C19.4384 15.4427 20.7166 15.5376 24.0861 15.7878L24.2474 15.8L24.0281 15.4232C23.9097 15.2198 23.8816 14.9858 23.9337 14.7724C23.9861 14.5584 24.1193 14.3646 24.3227 14.2409L25.4905 13.533L25.4927 13.5304L25.5016 13.5253L25.5038 13.5242C25.7035 13.4079 25.9342 13.3806 26.1449 13.4315C26.3575 13.4828 26.5506 13.6146 26.6724 13.8154L26.6746 13.818L26.6798 13.8264L26.6809 13.8287L30.3807 20.1831C30.4992 20.3868 30.5272 20.6204 30.4748 20.8338C30.4224 21.0482 30.2895 21.2416 30.0858 21.3653L28.9183 22.0736L28.9158 22.0747L28.9069 22.0799L28.9047 22.0821C28.7054 22.1983 28.4743 22.2257 28.2636 22.1747C28.051 22.1234 27.8583 21.992 27.7361 21.7909L27.7339 21.7886L27.7287 21.7802L27.7276 21.7776L27.3474 21.1246L26.5668 21.7152C26.7071 21.9618 26.7624 22.2389 26.7436 22.5091C26.7292 22.7228 26.6683 22.9336 26.5668 23.1215C26.4642 23.3116 26.3191 23.4799 26.1372 23.6072C25.9526 23.736 25.7334 23.8213 25.4853 23.8434C25.4019 24.0771 25.2635 24.276 25.0705 24.4406C24.8594 24.6204 24.5866 24.754 24.2518 24.8411C24.1787 25.1054 24.0636 25.3268 23.9034 25.5018C23.6989 25.7251 23.4306 25.8653 23.0928 25.9152L22.9522 25.948C22.0195 27.3775 20.8705 26.6696 19.8503 26.041C19.7532 25.9812 19.6573 25.9222 19.5646 25.8672ZM12.7544 21.2848L16.4524 14.9326C16.4908 14.8666 16.5 14.7916 16.4834 14.7234C16.4675 14.6588 16.4277 14.6001 16.3671 14.5635L15.2019 13.8567L15.2015 13.8574L15.1926 13.8523H15.193C15.131 13.8172 15.0601 13.8087 14.9955 13.8246C14.9328 13.8397 14.8763 13.877 14.8413 13.9331L14.842 13.9335L14.8368 13.942L11.1385 20.2938C11.1001 20.3599 11.0908 20.4351 11.1075 20.5031C11.1233 20.568 11.1632 20.6263 11.2241 20.6633L12.3919 21.3716H12.3915L12.3956 21.3738L12.396 21.373C12.458 21.4096 12.53 21.4181 12.5953 21.4022C12.658 21.3871 12.7145 21.3498 12.7496 21.2937L12.7492 21.2933L12.754 21.2848L12.7544 21.2848ZM25.0195 15.9336C25.0424 15.9573 25.0609 15.9846 25.0749 16.0145L25.3694 16.5342L28.2455 21.4745H28.2458L28.2506 21.483L28.2503 21.4834C28.2853 21.5395 28.3418 21.5768 28.4045 21.5919C28.4699 21.6078 28.5418 21.5993 28.6039 21.5631L28.6042 21.5639L28.6083 21.5613H28.6079L29.7757 20.853C29.8366 20.8164 29.8765 20.7577 29.8924 20.6931C29.909 20.6249 29.8998 20.5496 29.8614 20.4839L26.163 14.1317L26.1578 14.1232L26.1586 14.1228C26.1235 14.0667 26.067 14.0294 26.0043 14.0143C25.9397 13.9988 25.8688 14.0069 25.8068 14.042H25.8072L25.7983 14.0475L25.798 14.0468L24.6327 14.7532C24.5722 14.7902 24.5323 14.8485 24.5164 14.9134C24.4998 14.9813 24.5091 15.0566 24.5475 15.1227L25.0195 15.9336Z" fill="#FF9900"/>
</g>
<defs>
<clipPath id="clip0_161_4750">
<rect width="20" height="20" fill="white" transform="translate(10.5 10)"/>
</clipPath>
</defs>
</svg>
