<svg width="41" height="40" viewBox="0 0 41 40" fill="none" xmlns="http://www.w3.org/2000/svg">
<rect x="0.5" width="40" height="40" rx="20" fill="#FFF8EC"/>
<g clip-path="url(#clip0_161_4818)">
<path fill-rule="evenodd" clip-rule="evenodd" d="M17.8701 12.8614L23.8282 10.376L28.9658 15.6684L26.5681 21.6075C22.5021 22.7341 18.7147 24.3784 15.1388 26.4166L14.413 25.5153L21.5045 18.484C21.6472 18.5494 21.802 18.582 21.9585 18.582H21.9603C22.5726 18.582 23.0679 18.0867 23.0679 17.4744C23.0679 16.8638 22.5726 16.3667 21.9603 16.3667C21.3497 16.3667 20.8526 16.8621 20.8526 17.4744C20.8526 17.6722 20.9042 17.8579 20.9954 18.0179L13.9778 24.9907L13.0043 24.1015C15.1457 20.5961 16.7831 16.8586 17.8701 12.8614ZM25.5258 9L30.5017 14.098L30.0476 14.5401L29.5936 14.9821L24.6176 9.88235L25.0717 9.44032L25.5258 9ZM13.7663 27.4658C16.0986 29.6123 17.4711 28.6766 19.413 27.3488C21.0194 26.2515 22.9613 24.9254 25.9059 24.4868C26.1158 23.7816 26.7694 23.2673 27.5416 23.2673C28.4842 23.2673 29.2479 24.031 29.2479 24.9735C29.2479 25.9161 28.4842 26.6797 27.5416 26.6797C26.8794 26.6797 26.305 26.3031 26.0229 25.7509C23.3879 26.1689 21.6042 27.3867 20.1268 28.3946C17.6379 30.0939 15.899 31.2807 12.8512 28.3533C12.6465 28.4358 12.4281 28.4788 12.2079 28.4788H12.2062C11.2637 28.4788 10.5 27.7152 10.5 26.7726C10.5 25.8301 11.2637 25.0664 12.2062 25.0664C13.1488 25.0664 13.9125 25.8301 13.9125 26.7726V26.7743C13.9125 27.0134 13.8626 27.2473 13.7663 27.4658Z" fill="#FF9900"/>
</g>
<defs>
<clipPath id="clip0_161_4818">
<rect width="20" height="21.1352" fill="white" transform="translate(10.5 9)"/>
</clipPath>
</defs>
</svg>
