<svg width="41" height="40" viewBox="0 0 41 40" fill="none" xmlns="http://www.w3.org/2000/svg">
<rect x="0.5" width="40" height="40" rx="20" fill="#FFF8EC"/>
<g clip-path="url(#clip0_161_4599)">
<path fill-rule="evenodd" clip-rule="evenodd" d="M19.25 23.6954L19.224 25.2741H20.8777C21.0463 25.2746 21.2079 25.3418 21.3272 25.461C21.4464 25.5803 21.5136 25.7419 21.514 25.9105V26.5469V28.8825C21.5136 29.0512 21.4464 29.2128 21.3272 29.3321C21.2079 29.4513 21.0463 29.5185 20.8777 29.5189H20.2347V26.7292C20.2347 26.4509 20.129 26.5469 19.8132 26.5469H18.3923H17.5785C17.3247 26.5461 17.0815 26.4447 16.9022 26.2651C16.7228 26.0854 16.6219 25.8421 16.6215 25.5883V22.2631C16.6215 22.0041 16.7244 21.7557 16.9075 21.5725C17.0906 21.3894 17.339 21.2865 17.598 21.2865H18.0863C19.0905 21.2865 18.9294 21.9766 19.3737 22.4112C19.8181 22.8457 19.6993 22.8897 20.2999 22.8897H21.5905C22.6599 22.8897 22.0788 23.9281 21.4522 23.8956H20.2657C19.7383 23.8956 19.6928 23.9802 19.2582 23.6905L19.25 23.6954ZM12.3734 29.6849V19.8103C12.0455 19.948 11.6794 19.9653 11.3399 19.8591C11.1158 19.7849 10.918 19.6476 10.7702 19.4636C10.6226 19.276 10.5317 19.0501 10.5082 18.8125C10.4904 18.5969 10.5158 18.3799 10.5829 18.1743C10.6499 17.9686 10.7574 17.7783 10.8988 17.6146C10.9152 17.5942 10.9337 17.5756 10.9541 17.5593L20.2413 11.0896C20.3005 11.035 20.3772 11.0033 20.4577 11C20.5382 10.9968 20.6172 11.0221 20.6807 11.0717L29.9874 17.5332C30.0021 17.5444 30.0157 17.5569 30.028 17.5707C30.4594 18.0346 30.5668 18.5472 30.4626 18.9818C30.4119 19.1921 30.3102 19.3866 30.1664 19.5482C30.0234 19.7095 29.842 19.8321 29.639 19.9047C29.4594 19.9671 29.269 19.993 29.0792 19.9807C28.8894 19.9684 28.704 19.9182 28.5339 19.8331V29.6654H27.6224V19.4327C27.6224 19.2699 21.239 14.9974 20.5342 14.4489C19.7872 15.017 13.2849 19.2471 13.2849 19.4636V29.6931H12.3734V29.6849ZM25.7588 11.5778L28.5534 11.6918V15.4662L25.7588 13.6221V11.5778ZM22.5167 23.8972C22.4446 23.8972 22.3754 23.8685 22.3245 23.8176C22.2735 23.7666 22.2448 23.6975 22.2448 23.6254C22.2448 23.5533 22.2735 23.4841 22.3245 23.4332C22.3754 23.3822 22.4446 23.3536 22.5167 23.3536H24.4096L25.3731 21.4004C25.4046 21.3357 25.4605 21.2861 25.5286 21.2626C25.5967 21.2391 25.6713 21.2436 25.7361 21.2751C25.8008 21.3066 25.8504 21.3626 25.8739 21.4306C25.8974 21.4987 25.8929 21.5733 25.8614 21.6381L24.8311 23.7214C24.8116 23.773 24.7769 23.8175 24.7315 23.8489C24.6862 23.8802 24.6324 23.8971 24.5772 23.8972H22.5167ZM20.1176 24.1039H25.5228C25.5379 24.1039 25.5524 24.1099 25.5631 24.1206C25.5738 24.1313 25.5798 24.1457 25.5798 24.1609V24.9747C25.5798 24.9898 25.5738 25.0043 25.5631 25.0149C25.5524 25.0256 25.5379 25.0316 25.5228 25.0316H25.2673V29.6166C25.2669 29.6363 25.2589 29.6551 25.2449 29.6691C25.231 29.683 25.2122 29.691 25.1924 29.6915H24.5414C24.5217 29.691 24.5029 29.683 24.4889 29.6691C24.475 29.6551 24.4669 29.6363 24.4665 29.6166V25.0284H20.1176C20.1025 25.0284 20.088 25.0224 20.0773 25.0117C20.0666 25.001 20.0606 24.9865 20.0606 24.9714V24.1576C20.0606 24.1425 20.0666 24.128 20.0773 24.1173C20.088 24.1066 20.1025 24.1006 20.1176 24.1006V24.1039ZM15.9086 28.9232C15.9133 28.8825 15.9316 28.8447 15.9607 28.8158C16.1925 28.5855 16.4696 28.406 16.7745 28.2885C17.0049 28.2026 17.2457 28.1479 17.4906 28.1257L17.4434 27.5219H15.7181C15.6318 27.5219 15.549 27.4876 15.488 27.4265C15.4269 27.3655 15.3926 27.2827 15.3926 27.1963C15.3926 25.8405 15.7181 24.8217 15.3926 23.2787C15.2982 22.8213 16.2422 22.7546 16.2422 23.3031V26.7666H19.5072C19.6879 26.7666 19.8327 27.0075 19.8327 27.1866V27.4388C19.8327 27.4578 19.8252 27.4761 19.8118 27.4895C19.7983 27.5029 19.7801 27.5105 19.7611 27.5105H18.0293L17.9626 28.1062C18.2224 28.1243 18.4783 28.1791 18.7227 28.2689C19.0156 28.3732 19.2854 28.5335 19.517 28.7409C19.5418 28.7638 19.5599 28.793 19.5694 28.8254C19.5789 28.8578 19.5793 28.8922 19.5707 28.9249C19.6178 28.9538 19.6559 28.9954 19.6807 29.0448C19.7054 29.0943 19.7158 29.1497 19.7107 29.2048C19.7046 29.2928 19.6654 29.3753 19.6009 29.4356C19.5364 29.4958 19.4514 29.5293 19.3632 29.5293C19.2749 29.5293 19.1899 29.4958 19.1254 29.4356C19.0609 29.3753 19.0217 29.2928 19.0157 29.2048C19.0108 29.1493 19.0214 29.0936 19.0464 29.0439C19.0715 28.9941 19.1098 28.9524 19.1573 28.9232C18.9875 28.7926 18.7987 28.6889 18.5974 28.6156C18.3625 28.5314 18.116 28.4841 17.8666 28.4756L17.8243 28.8532V28.8695C17.8991 28.8878 17.9653 28.9313 18.0118 28.9926C18.0584 29.054 18.0824 29.1295 18.0798 29.2064C18.0798 29.2988 18.0431 29.3874 17.9778 29.4527C17.9125 29.518 17.8239 29.5547 17.7315 29.5547C17.6391 29.5547 17.5505 29.518 17.4852 29.4527C17.4199 29.3874 17.3832 29.2988 17.3832 29.2064C17.3805 29.1301 17.4041 29.0552 17.45 28.9942C17.4959 28.9331 17.5614 28.8897 17.6355 28.8711V28.8532L17.6094 28.4821C17.3708 28.4973 17.1358 28.5489 16.9128 28.6351C16.7113 28.7138 16.5235 28.8236 16.3562 28.9607C16.3932 28.9899 16.4222 29.0281 16.4405 29.0717C16.4587 29.1153 16.4655 29.1627 16.4603 29.2097C16.4521 29.2993 16.4125 29.383 16.3485 29.4462C16.2844 29.5094 16.2001 29.5478 16.1104 29.5547C16.0206 29.5483 15.9361 29.5097 15.8724 29.446C15.8087 29.3824 15.7701 29.2979 15.7637 29.2081C15.759 29.152 15.7701 29.0958 15.7957 29.0458C15.8213 28.9957 15.8604 28.9538 15.9086 28.9249V28.9232ZM18.695 18.4675C18.9587 18.4672 19.2166 18.5451 19.4361 18.6914C19.6555 18.8376 19.8266 19.0457 19.9277 19.2893C20.0289 19.5328 20.0555 19.8009 20.0043 20.0596C19.953 20.3182 19.8262 20.5559 19.6398 20.7425C19.4535 20.9291 19.2159 21.0562 18.9573 21.1078C18.6987 21.1593 18.4306 21.133 18.1869 21.0322C17.9433 20.9314 17.735 20.7605 17.5884 20.5412C17.4419 20.322 17.3637 20.0642 17.3637 19.8005C17.3637 19.4472 17.5039 19.1084 17.7535 18.8585C18.0031 18.6086 18.3418 18.4679 18.695 18.4675Z" fill="#FF9900"/>
</g>
<defs>
<clipPath id="clip0_161_4599">
<rect width="20" height="18.6882" fill="white" transform="translate(10.5 11)"/>
</clipPath>
</defs>
</svg>
