<svg width="41" height="40" viewBox="0 0 41 40" fill="none" xmlns="http://www.w3.org/2000/svg">
<rect x="0.5" width="40" height="40" rx="20" fill="#FFF8EC"/>
<g clip-path="url(#clip0_161_4685)">
<path fill-rule="evenodd" clip-rule="evenodd" d="M24.3989 23.864C24.2516 23.7307 24.0515 23.5587 23.841 23.3762C23.383 22.9832 22.8741 22.5463 22.6372 22.2497L22.6144 22.2655C22.1301 22.5971 21.5318 22.8182 20.7141 22.8165C19.9508 22.8147 19.377 22.6024 18.905 22.2883C18.7892 22.2111 18.6822 22.1286 18.5786 22.0427C18.3453 22.348 17.7732 22.834 17.2644 23.2657C16.9538 23.5289 16.6678 23.771 16.5169 23.9184C15.9905 24.5764 15.5255 25.2783 15.1342 26.0627L16.7537 26.0223L20.479 29.2615L24.2042 26.0223L25.8238 26.0627C25.4237 25.2555 24.9447 24.5378 24.3989 23.864ZM17.6574 20.4705C18.1066 20.7617 18.6014 20.9951 19.1419 21.1671C19.1963 21.0442 19.2717 20.9354 19.3805 20.8512C19.7069 20.5985 20.6632 20.6231 20.958 20.867C21.2054 21.0723 21.2089 21.5426 21.0264 21.7882C20.7106 22.2129 19.563 21.9883 18.8769 21.8023C18.9805 21.8918 19.0892 21.976 19.2033 22.0532C19.5999 22.3181 20.0806 22.4971 20.7158 22.4971C21.4037 22.4989 21.9073 22.3129 22.3161 22.0339C22.3916 21.9812 22.4653 21.9268 22.5372 21.8672C22.56 21.8286 22.5951 21.797 22.639 21.7795C22.9197 21.5303 23.1636 21.239 23.4058 20.9477L23.8374 20.4301C23.8901 20.3669 23.9076 20.3459 23.9269 20.3231C23.9796 20.2616 24.0392 20.1915 24.0971 20.1195C24.1129 20.1002 24.134 20.0827 24.1586 20.0704C24.2287 19.8423 24.2814 19.6036 24.3182 19.3527C24.4411 18.5333 24.4446 17.8963 24.0761 17.1418C23.7567 16.4908 23.3075 16.1522 22.818 15.91C23.3461 16.4996 23.783 17.0716 23.669 17.5419C23.0233 16.833 22.3582 16.2136 21.6686 15.7029C20.228 14.959 19.3805 13.95 19.0033 12.7287C16.8678 14.8607 16.4958 17.3559 17.2872 20.0704C17.3152 20.0827 17.3398 20.1002 17.3574 20.1213L17.6574 20.4705ZM18.0206 21.4882C17.4872 21.2215 16.9854 20.8284 16.5116 20.4371L15.6448 20.4599C15.5255 20.3231 15.4254 20.1651 15.3412 19.9879C15.2728 19.9809 15.2044 19.9669 15.1377 19.9458C14.3042 19.6844 13.6128 17.8314 13.7497 16.9576C13.8269 16.4627 14.0024 16.2838 14.2866 16.175C14.2726 16.1346 14.2656 16.0925 14.2656 16.0469V14.1816C14.2656 13.4798 14.4762 12.7902 14.8183 12.1655C15.1921 11.4794 15.7255 10.867 16.3081 10.4038C17.4977 9.45448 19.0384 8.98423 20.5702 9.00002C22.0898 9.01581 23.6058 9.51239 24.7657 10.4968C25.3254 10.9723 25.7974 11.5952 26.1273 12.2831C26.4484 12.9533 26.6344 13.6868 26.6344 14.408V15.9486C26.6344 16.1679 26.4572 16.3452 26.2379 16.3452C26.1115 16.3452 25.9992 16.2873 25.9273 16.1943C26.1221 17.6577 25.9396 19.1632 25.3553 20.4125H24.3674C24.3446 20.4389 24.3235 20.4652 24.3024 20.4898L24.2147 20.5933L23.783 21.1109C23.5321 21.4127 23.2777 21.7163 22.9776 21.9812C23.1356 22.1883 23.662 22.6393 24.1287 23.0411C24.2796 23.1709 24.427 23.2973 24.5551 23.4096C25.8343 23.9079 27.0836 24.4185 28.054 25.0256C28.8032 25.4941 29.1893 25.8486 29.4928 26.4171C29.9719 27.3155 30.3491 28.3122 30.4614 29.4948C30.5614 30.5529 30.5527 30.5055 29.5367 30.5266C24.1814 30.6336 16.7239 30.4371 11.4844 30.5266C10.5316 30.5424 10.4333 30.6108 10.5334 29.2544C10.858 27.7156 10.6737 27.9191 11.4756 26.4171C11.7792 25.8486 12.1652 25.4959 12.9145 25.0256C13.8901 24.4132 15.1464 23.9009 16.4344 23.4008C16.5923 23.2604 16.7836 23.0972 16.9854 22.9253C17.5469 22.448 18.1908 21.9023 18.2628 21.7409C18.1786 21.6601 18.0978 21.5759 18.0206 21.4882ZM25.8396 15.6766V14.4097C25.8396 13.8061 25.6834 13.1885 25.4132 12.6252C25.1324 12.0374 24.7288 11.5075 24.2533 11.1021C23.2373 10.2388 21.9038 9.80367 20.5614 9.78963C19.2033 9.77559 17.8417 10.1897 16.7976 11.0232C16.2923 11.4268 15.8308 11.9532 15.5097 12.5445C15.2289 13.0586 15.057 13.6184 15.057 14.1834V15.7784C15.4869 13.7096 16.3642 12.2023 17.7276 11.3022C18.7313 10.6389 19.3296 10.6021 20.5 10.6021C21.523 10.6021 22.1494 10.5792 23.0215 11.153C24.527 12.1427 25.4816 13.8482 25.8396 15.6766ZM19.2261 27.3383L19.9648 24.7765L19.6034 24.3799C19.4402 24.1413 19.4051 23.9342 19.4946 23.7552C19.6911 23.3675 20.0964 23.4394 20.4755 23.4394C20.872 23.4394 21.3616 23.3639 21.4862 23.8605C21.5283 24.0272 21.4756 24.2009 21.3598 24.3799L20.9984 24.7765L21.7371 27.3383L20.4825 28.3297L19.2261 27.3383Z" fill="#FF9900"/>
</g>
<defs>
<clipPath id="clip0_161_4685">
<rect width="20" height="21.5617" fill="white" transform="translate(10.5 9)"/>
</clipPath>
</defs>
</svg>
