<svg width="41" height="40" viewBox="0 0 41 40" fill="none" xmlns="http://www.w3.org/2000/svg">
<rect x="0.5" width="40" height="40" rx="20" fill="#FFF8EC"/>
<g clip-path="url(#clip0_161_4707)">
<path fill-rule="evenodd" clip-rule="evenodd" d="M20.4657 9C24.1948 11.3638 27.5637 12.4821 30.455 12.2178C30.96 22.4311 27.1883 28.4627 20.5043 30.9799C14.0497 28.6238 10.2318 22.8518 10.515 12.0628C13.9091 12.2405 17.239 11.5067 20.4657 9ZM17.9159 19.1078H18.1731V18.5119C18.1731 17.8521 18.4332 17.2507 18.8523 16.8137C19.2746 16.3733 19.8579 16.0998 20.5004 16.0998C21.1429 16.0998 21.7264 16.3733 22.1485 16.8137C22.5676 17.2507 22.8277 17.8521 22.8277 18.5119V19.1078H23.0849C23.2937 19.1078 23.4647 19.2786 23.4647 19.4875V23.5004C23.4647 23.7093 23.2937 23.8801 23.0849 23.8801H17.9159C17.7069 23.8801 17.5361 23.7093 17.5361 23.5004V19.4875C17.5359 19.2786 17.7069 19.1078 17.9159 19.1078ZM20.1886 21.7512L19.7788 22.8244H21.2216L20.842 21.7365C21.083 21.6125 21.2477 21.3614 21.2477 21.0718C21.2477 20.659 20.9131 20.3243 20.5002 20.3243C20.0874 20.3243 19.7529 20.659 19.7529 21.0718C19.7529 21.3732 19.9314 21.6329 20.1886 21.7512ZM18.8921 19.1078H22.1085V18.5119C22.1085 18.0428 21.9258 17.6178 21.6316 17.3108C21.3406 17.0073 20.9401 16.8187 20.5002 16.8187C20.0605 16.8187 19.6599 17.0073 19.369 17.3108C19.0746 17.6178 18.8921 18.0428 18.8921 18.5119V19.1078Z" fill="#FF9900"/>
</g>
<defs>
<clipPath id="clip0_161_4707">
<rect width="20" height="21.9799" fill="white" transform="translate(10.5 9)"/>
</clipPath>
</defs>
</svg>
