<svg width="28" height="28" viewBox="0 0 28 28" fill="none" xmlns="http://www.w3.org/2000/svg">
<rect width="28" height="28" rx="14" fill="#FF9900"/>
<path d="M20.9689 12.7821H20.2222V17.8709L16.9511 14.5998L16.3245 15.2265L19.5378 18.4443H8.51558L11.6267 15.2265L10.9867 14.6087L7.7778 17.9287V10.2309L13.3022 15.7287C13.4688 15.8943 13.6941 15.9872 13.9289 15.9872C14.1637 15.9872 14.389 15.8943 14.5556 15.7287L17.5156 12.7821H16.2578L13.9289 15.0976L8.36003 9.55539H14.9156L15.4267 8.6665H7.7778C7.54206 8.6665 7.31596 8.76015 7.14927 8.92685C6.98257 9.09355 6.88892 9.31964 6.88892 9.55539V18.4443C6.88892 18.68 6.98257 18.9061 7.14927 19.0728C7.31596 19.2395 7.54206 19.3332 7.7778 19.3332H20.2222C20.458 19.3332 20.6841 19.2395 20.8508 19.0728C21.0175 18.9061 21.1111 18.68 21.1111 18.4443V12.7732L20.9689 12.7821Z" fill="white"/>
<path d="M17.9333 6.44436L15.3911 10.8488C15.3424 10.9349 15.317 11.0322 15.3174 11.1311C15.3178 11.23 15.3439 11.327 15.3933 11.4127C15.4426 11.4984 15.5135 11.5698 15.5988 11.6198C15.6842 11.6697 15.7811 11.6966 15.88 11.6977H20.9689C21.0677 11.6966 21.1646 11.6697 21.25 11.6198C21.3353 11.5698 21.4062 11.4984 21.4555 11.4127C21.5049 11.327 21.5311 11.23 21.5314 11.1311C21.5318 11.0322 21.5064 10.9349 21.4577 10.8488L18.9155 6.44436C18.8654 6.3586 18.7937 6.28747 18.7075 6.23804C18.6214 6.18861 18.5237 6.1626 18.4244 6.1626C18.3251 6.1626 18.2275 6.18861 18.1413 6.23804C18.0552 6.28747 17.9834 6.3586 17.9333 6.44436Z" fill="white"/>
</svg>
