<svg width="41" height="40" viewBox="0 0 41 40" fill="none" xmlns="http://www.w3.org/2000/svg">
<rect x="0.5" width="40" height="40" rx="20" fill="#FFF8EC"/>
<g clip-path="url(#clip0_161_4774)">
<path fill-rule="evenodd" clip-rule="evenodd" d="M21.7734 29.9507V30.8642H11.7052C11.0485 30.8642 10.5 30.317 10.5 29.6594V10.2052C10.5 9.54585 11.0459 9 11.7052 9H27.255C27.9118 9 28.4603 9.54716 28.4603 10.2052V21.1467H27.5459V17.4511H11.4712L11.431 17.4493V29.7978C11.431 29.8904 11.5083 29.9672 11.6009 29.9672L21.7734 29.9507ZM21.3891 28.1288V28.6764C21.3891 28.7061 21.3694 28.7258 21.3406 28.7258H12.7179C12.6886 28.7258 12.669 28.7061 12.669 28.6764V28.1288C12.669 28.0996 12.6886 28.0799 12.7179 28.0799H21.3406C21.3699 28.0799 21.3891 28.0996 21.3891 28.1288ZM20.5576 26.5179V27.0651C20.5576 27.0952 20.538 27.1148 20.5087 27.1148H12.7179C12.6886 27.1148 12.669 27.0952 12.669 27.0651V26.5179C12.669 26.4882 12.6886 26.4686 12.7179 26.4686H20.5087C20.5384 26.4686 20.5576 26.4886 20.5576 26.5179ZM19.7262 24.9065V25.4541C19.7262 25.4838 19.7065 25.5035 19.6777 25.5035H12.7179C12.6886 25.5035 12.669 25.4838 12.669 25.4541V24.9065C12.669 24.8769 12.6886 24.8576 12.7179 24.8576H19.6777C19.707 24.8576 19.7262 24.8773 19.7262 24.9065ZM24.2852 22.4969H29.9808C30.2659 22.4969 30.5 22.7293 30.5 23.0144V30.8546C30.5 31.1397 30.2659 31.3738 29.9808 31.3738H24.2852C24 31.3738 23.7659 31.141 23.7659 30.8559V23.0162C23.7659 22.731 24 22.4969 24.2852 22.4969ZM28.7786 24.0096H28.9454V24.9092H28.7786V24.0096ZM24.9895 26.1231H25.807C25.8773 26.1231 25.9349 26.1812 25.9349 26.2511V26.9681C25.9348 27.002 25.9213 27.0345 25.8973 27.0585C25.8734 27.0824 25.8409 27.096 25.807 27.0961H24.9895C24.9197 27.0961 24.862 27.0384 24.862 26.9681V26.2511C24.862 26.1812 24.9197 26.1231 24.9895 26.1231ZM24.9895 29.4594H25.807C25.8773 29.4594 25.9349 29.5175 25.9349 29.5869V30.3048C25.9349 30.3747 25.8773 30.4323 25.807 30.4323H24.9895C24.9197 30.4323 24.862 30.3747 24.862 30.3048V29.5869C24.862 29.5175 24.9197 29.4594 24.9895 29.4594ZM24.9895 27.7913H25.807C25.8773 27.7913 25.9349 27.8493 25.9349 27.9192V28.6367C25.9349 28.7065 25.8773 28.7642 25.807 28.7642H24.9895C24.9197 28.7642 24.862 28.7065 24.862 28.6367V27.9192C24.862 27.8493 24.9197 27.7913 24.9895 27.7913ZM28.4598 26.1231H29.2777C29.3476 26.1231 29.4039 26.1812 29.4039 26.2511V26.9681C29.4039 27.0384 29.3463 27.0961 29.2777 27.0961H28.4598C28.39 27.0961 28.3323 27.0384 28.3323 26.9681V26.2511C28.3323 26.1812 28.3886 26.1231 28.4598 26.1231ZM28.4598 29.4594H29.2777C29.3476 29.4594 29.4039 29.5175 29.4039 29.5869V30.3048C29.4039 30.3747 29.3463 30.4323 29.2777 30.4323H28.4598C28.39 30.4323 28.3323 30.3747 28.3323 30.3048V29.5869C28.3323 29.5175 28.3886 29.4594 28.4598 29.4594ZM28.4598 27.7913H29.2777C29.3476 27.7913 29.4039 27.8493 29.4039 27.9192V28.6367C29.4039 28.7065 29.3463 28.7642 29.2777 28.7642H28.4598C28.39 28.7642 28.3323 28.7065 28.3323 28.6367V27.9192C28.3323 27.8493 28.3886 27.7913 28.4598 27.7913ZM26.724 26.1231H27.5415C27.6118 26.1231 27.6694 26.1812 27.6694 26.2511V26.9681C27.6693 27.002 27.6558 27.0345 27.6318 27.0585C27.6079 27.0824 27.5754 27.096 27.5415 27.0961H26.724C26.6541 27.0961 26.5965 27.0384 26.5965 26.9681V26.2511C26.5965 26.1812 26.6541 26.1231 26.724 26.1231ZM26.724 29.4594H27.5415C27.6118 29.4594 27.6694 29.5175 27.6694 29.5869V30.3048C27.6694 30.3747 27.6118 30.4323 27.5415 30.4323H26.724C26.6541 30.4323 26.5965 30.3747 26.5965 30.3048V29.5869C26.5965 29.5175 26.6541 29.4594 26.724 29.4594ZM26.724 27.7913H27.5415C27.6118 27.7913 27.6694 27.8493 27.6694 27.9192V28.6367C27.6694 28.7065 27.6118 28.7642 27.5415 28.7642H26.724C26.6541 28.7642 26.5965 28.7065 26.5965 28.6367V27.9192C26.5965 27.8493 26.6541 27.7913 26.724 27.7913ZM24.8821 23.476H29.3838C29.5236 23.476 29.6393 23.5917 29.6393 23.7314V25.1865C29.6393 25.3262 29.5236 25.4419 29.3838 25.4419H24.8821C24.7424 25.4419 24.6266 25.3258 24.6266 25.1865V23.7314C24.6266 23.5917 24.7424 23.476 24.8821 23.476ZM29.3502 23.7651H24.9157V25.1528H29.3502V23.7651ZM29.9808 22.8603H24.2852C24.1987 22.8603 24.1275 22.9293 24.1275 23.0162V30.8559C24.1275 30.9419 24.1974 31.0118 24.2838 31.0118H29.9795C30.0655 31.0118 30.1354 30.9419 30.1354 30.8559V23.0162C30.1354 22.9306 30.0668 22.8603 29.9808 22.8603ZM25.2345 19.3031V19.845C25.2345 19.8747 25.2153 19.8939 25.1865 19.8939H19.5585C19.5293 19.8939 19.51 19.8747 19.51 19.845V19.3031C19.51 19.2734 19.5293 19.2541 19.5585 19.2541H25.1865C25.2153 19.2541 25.2345 19.2734 25.2345 19.3031ZM22.6886 20.8288V21.3716C22.6886 21.4004 22.6694 21.4196 22.6397 21.4196H19.5686C19.5393 21.4196 19.5197 21.4004 19.5197 21.3716V20.8288C19.5197 20.7996 19.5393 20.7803 19.5686 20.7803H22.6397C22.6594 20.7803 22.6886 20.7996 22.6886 20.8288ZM15.4616 21.2336L17.3524 21.2677C17.3524 21.9664 17.0188 22.6079 16.4624 22.9974L15.4616 21.2336ZM15.3349 18.369V18.2201L15.4799 18.2319C15.6576 18.2428 15.8354 18.2773 16.0026 18.3236C16.1694 18.369 16.3253 18.438 16.4808 18.5179C17.3926 19.0083 17.7629 19.8301 17.838 20.8432L15.3507 20.7747L15.3349 18.369ZM15.6245 20.5L17.5489 20.5572C17.4707 19.7782 17.0035 19.1026 16.3581 18.7472C16.1559 18.6428 15.9402 18.5664 15.7175 18.5236C15.679 18.5162 15.641 18.5105 15.6022 18.5065L15.6245 20.5ZM15.9061 22.9555C15.5725 23.1498 15.2052 23.2537 14.8271 23.2537C13.6367 23.2537 12.669 22.2568 12.669 21.0301C12.669 19.8389 13.5812 18.8537 14.738 18.8079L14.8271 21.0301L15.9061 22.9555ZM27.5459 16.5825V10.1004C27.5459 10.0083 27.4694 9.93057 27.3769 9.93057H11.6009C11.5048 9.93057 11.431 10.0057 11.431 10.1004V16.5843L11.4712 16.5825H27.5459ZM16.3166 11.7681H17.3996C17.4406 11.7681 17.4677 11.7952 17.4677 11.8362V15.6175C17.4677 15.6585 17.4406 15.6856 17.3996 15.6856H16.3166C16.2755 15.6856 16.2485 15.6585 16.2485 15.6175V11.8362C16.2485 11.7952 16.2755 11.7681 16.3166 11.7681ZM19.0611 13.2052H20.1441C20.1852 13.2052 20.2122 13.2323 20.2122 13.2734V15.6039C20.2122 15.645 20.1852 15.6721 20.1441 15.6721H19.0611C19.0201 15.6721 18.993 15.645 18.993 15.6039V13.2734C18.993 13.2463 19.0201 13.2052 19.0611 13.2052ZM24.5507 13.2052H25.6336C25.6747 13.2052 25.7017 13.2323 25.7017 13.2734V15.6039C25.7017 15.645 25.6747 15.6721 25.6336 15.6721H24.5507C24.5096 15.6721 24.4825 15.645 24.4825 15.6039V13.2734C24.4825 13.2463 24.5096 13.2052 24.5507 13.2052ZM21.8057 11.7681H22.8882C22.9297 11.7681 22.9568 11.7952 22.9568 11.8362V15.6175C22.9568 15.6585 22.9297 15.6856 22.8882 15.6856H21.8057C21.7642 15.6856 21.7371 15.6585 21.7371 15.6175V11.8362C21.7371 11.7952 21.7642 11.7681 21.8057 11.7681ZM13.5721 12.2878H14.6546C14.6956 12.2878 14.7227 12.3148 14.7227 12.3568V15.6175C14.7227 15.6585 14.6956 15.6856 14.6546 15.6856H13.5721C13.531 15.6856 13.5039 15.6585 13.5039 15.6175V12.3568C13.49 12.3148 13.531 12.2878 13.5721 12.2878Z" fill="#FF9900"/>
</g>
<defs>
<clipPath id="clip0_161_4774">
<rect width="20" height="22.3738" fill="white" transform="translate(10.5 9)"/>
</clipPath>
</defs>
</svg>
