<svg width="28" height="28" viewBox="0 0 28 28" fill="none" xmlns="http://www.w3.org/2000/svg">
<rect width="28" height="28" rx="14" fill="#FF9900"/>
<path d="M19.5 7.47V9H20.03C20.29 9 20.5 9.1645 20.5 9.368V11.108C20.797 11.265 21 11.578 21 11.94V20.065C21 20.58 20.58 21 20.06 21H7.94C7.42 21 7 20.58 7 20.06V11.94C7 11.522 7.2715 11.1685 7.648 11.046C7.78493 10.7352 8.00925 10.4708 8.29367 10.2851C8.57808 10.0994 8.91033 10.0003 9.25 10C9.48295 9.99988 9.71356 10.0464 9.92825 10.1368C10.1429 10.2273 10.3373 10.3597 10.5 10.5265V9.368C10.5 9.165 10.71 9 10.97 9H11.5V7.47C11.5 7.21 11.71 7 11.97 7H19.03C19.29 7 19.5 7.21 19.5 7.47ZM19 10.5V7.5H12V10.5H19ZM10.5 11.75C10.5 11.061 9.939 10.5 9.25 10.5C8.91864 10.5005 8.60101 10.6324 8.3667 10.8667C8.13239 11.101 8.00053 11.4186 8 11.75V18.75C8 19.439 8.561 20 9.25 20C9.939 20 10.5 19.439 10.5 18.75V11.75ZM12.75 12C12.335 12 12 12.335 12 12.75C12 13.165 12.335 13.5 12.75 13.5H16.75C17.165 13.5 17.5 13.165 17.5 12.75C17.5 12.335 17.165 12 16.75 12H12.75ZM18.5 12.75C18.5 13.165 18.835 13.5 19.25 13.5C19.665 13.5 20 13.165 20 12.75C20 12.335 19.665 12 19.25 12C18.835 12 18.5 12.335 18.5 12.75ZM12.75 16C13.165 16 13.5 15.665 13.5 15.25C13.5 14.835 13.165 14.5 12.75 14.5C12.335 14.5 12 14.835 12 15.25C12 15.665 12.335 16 12.75 16ZM14.75 16C15.165 16 15.5 15.665 15.5 15.25C15.5 14.835 15.165 14.5 14.75 14.5C14.335 14.5 14 14.835 14 15.25C14 15.665 14.335 16 14.75 16ZM16 15.25C16 15.665 16.335 16 16.75 16C17.165 16 17.5 15.665 17.5 15.25C17.5 14.835 17.165 14.5 16.75 14.5C16.335 14.5 16 14.835 16 15.25ZM12.75 18C13.165 18 13.5 17.665 13.5 17.25C13.5 16.835 13.165 16.5 12.75 16.5C12.335 16.5 12 16.835 12 17.25C12 17.665 12.335 18 12.75 18ZM14 17.25C14 17.665 14.335 18 14.75 18C15.165 18 15.5 17.665 15.5 17.25C15.5 16.835 15.165 16.5 14.75 16.5C14.335 16.5 14 16.835 14 17.25ZM16.75 18C17.165 18 17.5 17.665 17.5 17.25C17.5 16.835 17.165 16.5 16.75 16.5C16.335 16.5 16 16.835 16 17.25C16 17.665 16.335 18 16.75 18ZM12 19.25C12 19.665 12.335 20 12.75 20C13.165 20 13.5 19.665 13.5 19.25C13.5 18.835 13.165 18.5 12.75 18.5C12.335 18.5 12 18.835 12 19.25ZM14.75 20C15.165 20 15.5 19.665 15.5 19.25C15.5 18.835 15.165 18.5 14.75 18.5C14.335 18.5 14 18.835 14 19.25C14 19.665 14.335 20 14.75 20ZM16 19.25C16 19.665 16.335 20 16.75 20C17.165 20 17.5 19.665 17.5 19.25C17.5 18.835 17.165 18.5 16.75 18.5C16.335 18.5 16 18.835 16 19.25ZM18.75 15H19.75C19.89 15 20 14.89 20 14.75C20 14.61 19.89 14.5 19.75 14.5H18.75C18.61 14.5 18.5 14.61 18.5 14.75C18.5 14.89 18.61 15 18.75 15ZM18.75 16H19.75C19.89 16 20 15.89 20 15.75C20 15.61 19.89 15.5 19.75 15.5H18.75C18.61 15.5 18.5 15.61 18.5 15.75C18.5 15.89 18.61 16 18.75 16ZM19.75 17C19.89 17 20 16.89 20 16.75C20 16.61 19.89 16.5 19.75 16.5H18.75C18.61 16.5 18.5 16.61 18.5 16.75C18.5 16.89 18.61 17 18.75 17H19.75ZM18.75 18H19.75C19.89 18 20 17.89 20 17.75C20 17.61 19.89 17.5 19.75 17.5H18.75C18.61 17.5 18.5 17.61 18.5 17.75C18.5 17.89 18.61 18 18.75 18ZM19.75 19C19.89 19 20 18.89 20 18.75C20 18.61 19.89 18.5 19.75 18.5H18.75C18.61 18.5 18.5 18.61 18.5 18.75C18.5 18.89 18.61 19 18.75 19H19.75ZM18.75 20H19.75C19.89 20 20 19.89 20 19.75C20 19.61 19.89 19.5 19.75 19.5H18.75C18.61 19.5 18.5 19.61 18.5 19.75C18.5 19.89 18.61 20 18.75 20Z" fill="white"/>
</svg>
