<svg width="41" height="40" viewBox="0 0 41 40" fill="none" xmlns="http://www.w3.org/2000/svg">
<rect x="0.5" width="40" height="40" rx="20" fill="#FFF8EC"/>
<g clip-path="url(#clip0_161_4840)">
<path fill-rule="evenodd" clip-rule="evenodd" d="M12.917 19.3991H13.9993L14.3883 21.458L14.958 19.3991H16.0322L16.6068 21.4613L16.999 19.3991H18.0765L17.2627 23.0905H16.1445L15.4967 20.7663L14.8538 23.0905H13.7373L12.917 19.3991ZM11.8542 12H29.1458C29.8913 12 30.5 12.6087 30.5 13.3542V25.4994C30.5 26.2432 29.8913 26.8535 29.1458 26.8535H11.8542C11.1087 26.8535 10.5 26.2432 10.5 25.4994V13.3542C10.5 12.6087 11.1087 12 11.8542 12ZM29.7008 15.7907H11.361V25.6312C11.361 25.7354 11.4017 25.8265 11.4701 25.8965C11.5384 25.9648 11.6312 26.0055 11.7354 26.0055H29.32C29.4242 26.0055 29.5153 25.9648 29.5853 25.8965C29.6553 25.8265 29.6943 25.7354 29.6943 25.6312V15.7907H29.7008ZM27.8568 13.5218C28.2262 13.5218 28.5257 13.8213 28.5257 14.1908C28.5257 14.5602 28.2262 14.8597 27.8568 14.8597C27.4873 14.8597 27.1878 14.5602 27.1878 14.1908C27.1878 13.8213 27.4889 13.5218 27.8568 13.5218ZM23.3255 13.5218C23.695 13.5218 23.9945 13.8213 23.9945 14.1908C23.9945 14.5602 23.695 14.8597 23.3255 14.8597C22.9561 14.8597 22.6566 14.5602 22.6566 14.1908C22.6566 13.8213 22.9561 13.5218 23.3255 13.5218ZM25.5911 13.5218C25.9606 13.5218 26.2601 13.8213 26.2601 14.1908C26.2601 14.5602 25.9606 14.8597 25.5911 14.8597C25.2217 14.8597 24.9222 14.5602 24.9222 14.1908C24.9222 13.8213 25.2217 13.5218 25.5911 13.5218ZM23.2441 19.3991H24.3265L24.7155 21.458L25.2852 19.3991H26.3594L26.9339 21.4613L27.3262 19.3991H28.4036L27.5898 23.0905H26.4717L25.8239 20.7663L25.181 23.0905H24.0645L23.2441 19.3991ZM18.0814 19.3991H19.1637L19.5527 21.458L20.1224 19.3991H21.1966L21.7712 21.4613L22.1634 19.3991H23.2409L22.4271 23.0905H21.3089L20.6611 20.7663L20.0182 23.0905H18.9017L18.0814 19.3991Z" fill="#FF9900"/>
</g>
<defs>
<clipPath id="clip0_161_4840">
<rect width="20" height="14.8535" fill="white" transform="translate(10.5 12)"/>
</clipPath>
</defs>
</svg>
