<svg width="24" height="24" viewBox="0 0 24 24" fill="none" xmlns="http://www.w3.org/2000/svg">
<rect width="24" height="24" rx="12" fill="#55ACEE"/>
<path d="M21 7.69014C20.3634 7.97215 19.6882 8.15726 18.9968 8.23932C19.717 7.80768 20.2699 7.12416 20.5303 6.30975C19.8457 6.71602 19.0967 7.00226 18.3156 7.1561C17.6794 6.47829 16.773 6.05469 15.7698 6.05469C13.8436 6.05469 12.2819 7.6163 12.2819 9.54234C12.2819 9.81574 12.3128 10.0819 12.3722 10.3372C9.4736 10.1917 6.90368 8.80324 5.18343 6.69312C4.88327 7.20823 4.71128 7.80741 4.71128 8.44651C4.71128 9.65656 5.32706 10.724 6.26286 11.3495C5.709 11.3322 5.16732 11.1826 4.68305 10.9132C4.68286 10.9278 4.68286 10.9425 4.68286 10.9571C4.68286 12.647 5.88507 14.0566 7.48055 14.3771C6.96696 14.5167 6.42823 14.5372 5.90553 14.4368C6.34932 15.8224 7.6374 16.8308 9.16355 16.859C7.9699 17.7944 6.466 18.352 4.832 18.352C4.55044 18.352 4.27286 18.3355 4 18.3033C5.54348 19.2928 7.37676 19.8702 9.34637 19.8702C15.7617 19.8702 19.2697 14.5557 19.2697 9.94682C19.2697 9.79555 19.2664 9.64514 19.2596 9.49559C19.9424 9.00199 20.5318 8.3906 21 7.69014Z" fill="white"/>
</svg>
