<svg width="24" height="24" viewBox="0 0 24 24" fill="none" xmlns="http://www.w3.org/2000/svg">
<rect width="24" height="24" rx="12" fill="#1877F2"/>
<path d="M16.1667 4.91671C16.1667 4.8062 16.1228 4.70022 16.0446 4.62208C15.9665 4.54394 15.8605 4.50004 15.75 4.50004H13.6667C12.6176 4.44779 11.5905 4.81287 10.8098 5.51553C10.029 6.21818 9.55815 7.20129 9.5 8.25004V10.5H7.41667C7.30616 10.5 7.20018 10.5439 7.12204 10.6221C7.0439 10.7002 7 10.8062 7 10.9167V13.0834C7 13.1939 7.0439 13.2999 7.12204 13.378C7.20018 13.4561 7.30616 13.5 7.41667 13.5H9.5V19.0834C9.5 19.1939 9.5439 19.2999 9.62204 19.378C9.70018 19.4561 9.80616 19.5 9.91667 19.5H12.4167C12.5272 19.5 12.6332 19.4561 12.7113 19.378C12.7894 19.2999 12.8333 19.1939 12.8333 19.0834V13.5H15.0167C15.1093 13.5014 15.1998 13.4718 15.2737 13.4159C15.3477 13.3601 15.4009 13.2812 15.425 13.1917L16.025 11.025C16.0416 10.9635 16.0438 10.8989 16.0315 10.8364C16.0192 10.7738 15.9927 10.7149 15.9541 10.6642C15.9155 10.6135 15.8657 10.5723 15.8086 10.5438C15.7516 10.5154 15.6888 10.5004 15.625 10.5H12.8333V8.25004C12.8541 8.04378 12.9509 7.85264 13.105 7.71396C13.2591 7.57527 13.4594 7.49901 13.6667 7.50004H15.75C15.8605 7.50004 15.9665 7.45615 16.0446 7.37801C16.1228 7.29987 16.1667 7.19388 16.1667 7.08338V4.91671Z" fill="white"/>
</svg>
