<svg width="24" height="24" viewBox="0 0 24 24" fill="none" xmlns="http://www.w3.org/2000/svg">
<rect width="24" height="24" rx="12" fill="#1877F2"/>
<path d="M8.40512 18.3382V8.66423H5.18971V18.3382H8.40512ZM6.79783 7.34262C7.9191 7.34262 8.61704 6.59978 8.61704 5.67147C8.59615 4.72223 7.91915 4 6.81911 4C5.71924 4 5 4.72224 5 5.67147C5 6.59982 5.69777 7.34262 6.77684 7.34262H6.79773H6.79783ZM10.1848 18.3382H13.4003V12.9358C13.4003 12.6466 13.4212 12.3578 13.5061 12.1511C13.7385 11.5735 14.2676 10.9752 15.1558 10.9752C16.3193 10.9752 16.7848 11.8623 16.7848 13.1628V18.3381H20V12.7912C20 9.8197 18.4137 8.43711 16.2982 8.43711C14.5636 8.43711 13.802 9.40669 13.3789 10.0671H13.4003V8.66403H10.1849C10.2271 9.57178 10.1849 18.338 10.1849 18.338L10.1848 18.3382Z" fill="white"/>
</svg>
