<svg width="41" height="40" viewBox="0 0 41 40" fill="none" xmlns="http://www.w3.org/2000/svg">
<rect x="0.5" width="40" height="40" rx="20" fill="#FFF8EC"/>
<g clip-path="url(#clip0_161_4663)">
<path d="M13.656 21.6518C12.867 21.8179 12.0515 21.8345 11.2608 21.0223C10.7326 20.4808 10.4685 19.6719 10.5001 18.8248C12.5215 21.1751 14.9848 18.2701 11.995 16.7602C13.4384 16.0759 14.8004 16.7187 15.5229 18.0491C15.8651 18.677 16.0694 19.0059 16.3302 19.2301C16.3774 19.2716 16.4274 19.3098 16.4797 19.3447C16.5902 19.0277 16.8154 18.7634 17.1108 18.6039C17.2777 18.5175 17.4627 18.4719 17.6507 18.471C18.1789 18.471 18.8366 18.7866 18.9479 19.3248C18.9717 19.3181 18.9963 19.3147 19.021 19.3148H19.4047C19.4251 19.3123 19.4457 19.3123 19.4661 19.3148C19.6689 19.3335 19.86 19.4181 20.01 19.5559C20.1601 19.6936 20.2607 19.8767 20.2966 20.0772C20.3335 20.0597 20.3737 20.0506 20.4145 20.0506H20.7982C20.8186 20.0481 20.8393 20.0481 20.8597 20.0506C21.4095 20.1353 21.6321 20.4742 21.7101 20.9011H21.7533H22.137C22.1574 20.8985 22.178 20.8985 22.1985 20.9011C22.8296 20.9991 23.0771 21.4126 23.1735 21.9109C24.3361 21.7332 25.5935 21.0356 26.8276 22.298C27.0963 22.5938 27.302 22.9411 27.4325 23.3189C27.563 23.6966 27.6154 24.0969 27.5867 24.4954C25.5653 22.1451 23.102 25.0502 26.0918 26.5601C24.8511 27.1481 23.6684 26.7544 22.9027 25.786C22.7982 26.0696 22.6681 26.3432 22.514 26.6032C22.4509 26.7062 22.3861 26.8125 22.3031 26.9587C22.3022 26.9625 22.3022 26.9665 22.3031 26.9703C22.2379 27.0853 22.1658 27.1962 22.0872 27.3025H22.3529C22.4629 27.303 22.5683 27.3469 22.6461 27.4246C22.7238 27.5024 22.7677 27.6078 22.7682 27.7178V29.9784C22.7677 30.0884 22.7238 30.1937 22.6461 30.2715C22.5683 30.3493 22.4629 30.3932 22.3529 30.3936H16.3352C16.2252 30.3932 16.1198 30.3493 16.042 30.2715C15.9642 30.1937 15.9203 30.0884 15.9199 29.9784V27.7344C15.9203 27.6244 15.9642 27.519 16.042 27.4412C16.1198 27.3635 16.2252 27.3196 16.3352 27.3191H16.4797C16.4072 27.1153 16.3571 26.9042 16.3302 26.6896L14.2606 23.2995L14.2506 23.2879C14.0868 23.0691 13.9476 22.8329 13.8354 22.5836C13.7386 22.3738 13.678 22.1492 13.656 21.9193C13.6493 21.8325 13.6493 21.7453 13.656 21.6585V21.6518ZM28.9371 16.1224C28.9254 16.0776 28.9045 16.0357 28.8756 15.9995C28.8508 15.9666 28.8183 15.9404 28.781 15.9231C28.7455 15.9021 28.7057 15.8896 28.6647 15.8865C28.6221 15.8853 28.5796 15.8903 28.5385 15.9015H28.5285L27.306 16.2735C27.1914 16.3108 27.0671 16.3053 26.9562 16.2579C26.8454 16.2106 26.7554 16.1247 26.7031 16.0161C26.6399 15.9098 26.5785 15.8051 26.5037 15.6839C26.429 15.5626 26.3376 15.4547 26.2729 15.3517C26.2081 15.2487 26.1134 15.149 26.0137 15.0461C25.9141 14.9431 25.8476 14.8567 25.733 14.7421C25.6599 14.6645 25.6127 14.566 25.5981 14.4603C25.5835 14.3546 25.6023 14.247 25.6517 14.1525L26.3011 12.9316C26.3234 12.8957 26.3369 12.855 26.3407 12.8129C26.3444 12.7708 26.3383 12.7284 26.3227 12.6891C26.312 12.6504 26.2945 12.6139 26.2712 12.5812C26.2437 12.547 26.2092 12.5192 26.1699 12.4998L24.6318 11.6809C24.5962 11.6617 24.5582 11.6471 24.5189 11.6377C24.4728 11.6368 24.4269 11.643 24.3827 11.656C24.3446 11.6648 24.3096 11.6838 24.2813 11.7108C24.2472 11.7383 24.2194 11.7728 24.1999 11.8121L23.602 12.9333C23.5452 13.0401 23.4529 13.1238 23.341 13.1699C23.2291 13.216 23.1047 13.2216 22.9891 13.1858C22.8529 13.1509 22.725 13.1177 22.612 13.0944C22.4991 13.0711 22.3562 13.0479 22.22 13.0296C22.0878 13.0122 21.9547 13.0017 21.8214 12.9981C21.6819 12.9881 21.5523 12.9981 21.4278 12.9881C21.3161 12.9923 21.2063 12.9589 21.116 12.8933C21.0256 12.8276 20.9599 12.7335 20.9295 12.626L20.5142 11.2806C20.5142 11.2706 20.5142 11.2706 20.5142 11.264C20.503 11.2252 20.4862 11.1883 20.4644 11.1544C20.4083 11.0975 20.3344 11.0618 20.2551 11.053C20.2089 11.0493 20.1624 11.0555 20.1189 11.0713L18.4728 11.5746C18.428 11.5853 18.386 11.6057 18.3499 11.6344C18.3173 11.6599 18.2907 11.6922 18.2719 11.7291C18.2506 11.7648 18.2386 11.8054 18.237 11.847C18.235 11.8891 18.2401 11.9312 18.2519 11.9716V11.9799L18.6257 13.2007C18.6604 13.3159 18.6535 13.4396 18.6062 13.5502C18.5588 13.6607 18.4739 13.7511 18.3665 13.8053C18.2602 13.8668 18.1556 13.9282 18.0343 14.0046C17.9131 14.081 17.8051 14.1624 17.7021 14.2355C17.5992 14.3086 17.4862 14.4016 17.3849 14.4913C17.2836 14.581 17.1939 14.6574 17.0809 14.7737C17.0024 14.8478 16.9026 14.8954 16.7956 14.9097C16.6886 14.924 16.5798 14.9043 16.4846 14.8534L15.2655 14.2039C15.2271 14.1826 15.1846 14.1696 15.1409 14.1657C15.1024 14.1656 15.064 14.1695 15.0263 14.1774C14.9884 14.1857 14.9534 14.2041 14.925 14.2305C14.8903 14.2582 14.8625 14.2934 14.8436 14.3335L14.7771 14.4564C14.409 14.3852 14.0328 14.3656 13.6593 14.3983L13.955 13.8418C14.0389 13.6845 14.1516 13.5442 14.2871 13.4283C14.4257 13.3166 14.584 13.232 14.7539 13.1791C14.9245 13.1258 15.1041 13.1072 15.2821 13.1243C15.457 13.1483 15.626 13.2046 15.7804 13.2904L16.6823 13.7721L16.7487 13.7173C16.865 13.616 16.9896 13.5196 17.1142 13.4216C17.2387 13.3236 17.3733 13.2256 17.4962 13.1459L17.5394 13.1143L17.2902 12.2755C17.2341 12.106 17.2154 11.9264 17.2354 11.749C17.2509 11.5709 17.3029 11.3979 17.3882 11.2407C17.4696 11.0831 17.5827 10.944 17.7204 10.8321C17.8589 10.7194 18.018 10.6348 18.1888 10.583L19.8481 10.0681C20.0168 10.013 20.1942 9.98991 20.3714 9.99998C20.5496 10.0149 20.7227 10.0669 20.8796 10.1528C21.0395 10.2401 21.181 10.3574 21.2965 10.4983C21.4065 10.6352 21.4853 10.7945 21.5274 10.965L21.8314 11.9417C21.8551 11.9441 21.879 11.9441 21.9028 11.9417C22.0523 11.95 22.2068 11.9683 22.3695 11.9832C22.5323 11.9981 22.6801 12.0297 22.8363 12.0596C22.8588 12.0607 22.8808 12.0663 22.9011 12.0762L23.3097 11.3072C23.3917 11.1498 23.505 11.0109 23.6427 10.8989C23.7804 10.787 23.9395 10.7043 24.1103 10.6561H24.1202C24.2871 10.6038 24.4629 10.5863 24.6368 10.6046C24.8106 10.6224 24.9797 10.6725 25.1351 10.7524L26.6715 11.5729C26.8289 11.6568 26.9692 11.7695 27.0851 11.9051C27.2 12.0421 27.2849 12.2017 27.3342 12.3735C27.3876 12.5436 27.4063 12.7227 27.389 12.9001C27.3661 13.0753 27.3097 13.2444 27.2229 13.3984L26.7413 14.3019C26.7595 14.3202 26.7795 14.3485 26.7977 14.3667C26.8974 14.4847 26.9954 14.6076 27.0917 14.7321C27.1881 14.8567 27.2894 14.9913 27.3675 15.1142L27.399 15.159L28.2378 14.9082C28.4074 14.8526 28.5871 14.8345 28.7643 14.8551C28.9422 14.8708 29.1151 14.9222 29.2726 15.0062C29.4305 15.0873 29.5696 15.2004 29.6812 15.3384V15.3517C29.794 15.4901 29.8786 15.6492 29.9304 15.8201L30.4287 17.4661H30.437C30.4875 17.6345 30.5071 17.8106 30.4951 17.986C30.4795 18.1641 30.4274 18.3371 30.3423 18.4943C30.258 18.65 30.1454 18.7886 30.0101 18.9029C29.8722 19.0137 29.7118 19.0931 29.54 19.1354L28.5634 19.4394C28.5634 19.4643 28.5634 19.4925 28.5634 19.5175C28.5634 19.6686 28.5385 19.8214 28.5235 19.9676C28.5235 19.9676 28.5235 19.9859 28.5235 19.9925C28.5037 20.1511 28.4755 20.3086 28.4388 20.4642L28.4272 20.5207L29.2029 20.9343C29.3617 21.0145 29.5016 21.1278 29.6131 21.2665C29.7233 21.4035 29.8051 21.561 29.854 21.7299V21.7415C29.9062 21.9078 29.9237 22.0831 29.9055 22.2564C29.8879 22.4306 29.8372 22.5997 29.756 22.7547L29.633 22.9856L29.4138 22.8677C29.25 22.4 29.0061 21.9644 28.6929 21.5804C28.6697 21.5489 28.6448 21.519 28.6182 21.4891C28.2668 21.0696 27.8418 20.7178 27.3641 20.4509C27.3791 20.3895 27.394 20.3264 27.4073 20.2632C27.4289 20.1387 27.4538 20.0075 27.4688 19.8613C27.4688 19.8613 27.4688 19.843 27.4688 19.8364C27.487 19.7018 27.497 19.5806 27.507 19.4593C27.5169 19.3381 27.5219 19.1952 27.5186 19.0657C27.5144 18.954 27.5478 18.8442 27.6134 18.7539C27.6791 18.6635 27.7732 18.5978 27.8807 18.5674L29.2244 18.1521C29.2244 18.1521 29.2361 18.1521 29.2427 18.1521C29.2811 18.1412 29.3175 18.1244 29.3507 18.1023C29.38 18.0774 29.4033 18.0462 29.4188 18.0109C29.4386 17.9745 29.4505 17.9343 29.4537 17.893C29.4574 17.8468 29.4512 17.8004 29.4354 17.7568L28.9371 16.1124V16.1224ZM23.2897 15.6091C23.5226 15.7312 23.7415 15.8782 23.9425 16.0476C24.1435 16.213 24.3271 16.3983 24.4906 16.6008C24.6448 16.7998 24.7836 17.0102 24.9059 17.2303C25.0249 17.4483 25.1206 17.6782 25.1916 17.9163C25.2668 18.1559 25.3148 18.4033 25.3344 18.6537C25.3618 18.9044 25.3618 19.1572 25.3344 19.4078C25.3344 19.4261 25.3344 19.4394 25.3344 19.451C25.3142 19.6625 25.2765 19.872 25.2215 20.0772C24.9491 20.1038 24.6783 20.147 24.4109 20.1951L24.1651 20.0639C24.1867 20.0075 24.2049 19.9493 24.2232 19.8895C24.2735 19.719 24.3091 19.5445 24.3295 19.368C24.3278 19.3558 24.3278 19.3435 24.3295 19.3314C24.3487 19.1414 24.3487 18.95 24.3295 18.76C24.312 18.5784 24.2776 18.3988 24.2265 18.2235C24.1741 18.0502 24.1028 17.8831 24.0139 17.7252C23.9234 17.5567 23.8171 17.3971 23.6967 17.2485C23.5755 17.0992 23.4391 16.9628 23.2897 16.8416C22.985 16.5941 22.6353 16.408 22.2599 16.2935C22.0894 16.2431 21.9149 16.2076 21.7384 16.1872C21.7263 16.1895 21.7139 16.1895 21.7018 16.1872C21.5118 16.1697 21.3205 16.1697 21.1304 16.1872C20.9487 16.2052 20.7691 16.2402 20.5939 16.2918C20.4206 16.3442 20.2534 16.4155 20.0956 16.5044C19.9272 16.5944 19.7675 16.7 19.6189 16.82C19.4714 16.9403 19.3362 17.075 19.2153 17.222C19.1771 17.2668 19.1389 17.315 19.1024 17.3665L18.1955 16.8831C18.2679 16.7734 18.3466 16.6681 18.4313 16.5675C18.5922 16.368 18.7731 16.1855 18.9711 16.0227C19.1697 15.8675 19.3802 15.7281 19.6007 15.6058C19.8243 15.4875 20.0584 15.3902 20.2999 15.3151C20.5374 15.2418 20.7817 15.1928 21.0291 15.169C21.2803 15.1424 21.5336 15.1424 21.7849 15.169C21.8015 15.169 21.8164 15.1773 21.8264 15.169C22.0711 15.1924 22.3131 15.2391 22.5489 15.3085C22.8004 15.3856 23.0444 15.4851 23.2781 15.6058L23.2897 15.6091ZM16.9962 19.5955V19.6121V19.6337V19.6686V19.6869V19.7051V19.7616V19.7998V19.8198V19.858V19.8796V19.9011V19.9659V19.9875V20.0108V20.0523V23.1218C16.9992 23.1602 16.9942 23.1987 16.9816 23.235C16.9689 23.2713 16.9489 23.3047 16.9228 23.3329C16.8967 23.3611 16.865 23.3836 16.8298 23.399C16.7945 23.4144 16.7565 23.4224 16.718 23.4224C16.6796 23.4224 16.6415 23.4144 16.6063 23.399C16.571 23.3836 16.5394 23.3611 16.5132 23.3329C16.4871 23.3047 16.4671 23.2713 16.4545 23.235C16.4418 23.1987 16.4368 23.1602 16.4398 23.1218V22.6069C16.4252 22.5986 16.4113 22.5892 16.3983 22.5787L15.782 22.1518L15.0612 21.5588C14.9876 21.4968 14.906 21.4448 14.8187 21.4043H14.631C14.5514 21.3845 14.4678 21.3879 14.3901 21.4143C14.3604 21.4269 14.3335 21.4453 14.311 21.4684C14.2884 21.4915 14.2707 21.5188 14.2589 21.5489H14.2423C14.2084 21.6624 14.1971 21.7814 14.2091 21.8993C14.2262 22.0664 14.2717 22.2293 14.3436 22.381C14.4398 22.5848 14.5579 22.7775 14.6958 22.9557C14.6958 22.9557 14.7074 22.9723 14.7124 22.9823L16.8218 26.4305C16.8474 26.4682 16.8634 26.5115 16.8683 26.5567C16.8863 26.8234 16.9605 27.0832 17.0859 27.3191H21.2965C21.509 27.1579 21.6836 26.9521 21.8081 26.7162C21.8109 26.7108 21.8142 26.7058 21.8181 26.7012C21.8779 26.5983 21.9576 26.467 22.0357 26.3392C22.2407 25.9829 22.4003 25.6023 22.5107 25.2064V25.1964V25.1798V25.1698V25.1532V25.1416V25.125L22.5207 25.0917V25.0751V25.0602V25.0436V25.0319V25.0153V24.9987V24.9821V24.9489V24.9323V24.9173V24.9007V24.8841V24.8708V24.8542V24.8426V24.826V24.8094V24.7928V24.7811V24.7645V24.7512V24.7363V24.7197V24.7047V24.6881V24.6715V24.6566V24.6084V24.5918V24.5752V24.5602V24.5436V24.5287V24.5121V24.3725V24.2064L22.4991 23.2597C22.4983 23.2464 22.4983 23.2331 22.4991 23.2198C22.4991 23.2065 22.4991 23.1168 22.4991 22.9972V22.9673V22.763V22.7315V22.5172V22.4856V22.3079V22.2797V22.2498V22.2182V22.2033V22.097V22.0837V22.0687V22.0538V22.0388V22.0272V22.0123V21.999V21.984V21.9591C22.479 21.8372 22.4224 21.7243 22.3366 21.6353C22.2509 21.5463 22.1402 21.4854 22.0191 21.4608H21.7516C21.7516 21.5389 21.7516 21.6153 21.7516 21.6934V21.71V21.7233V21.793V21.8096V21.8213V21.8296V21.8379V21.8462C21.7417 22.0006 21.7334 22.1518 21.7334 22.2946C21.7334 22.3686 21.704 22.4396 21.6516 22.492C21.5993 22.5443 21.5283 22.5737 21.4543 22.5737C21.3803 22.5737 21.3093 22.5443 21.257 22.492C21.2047 22.4396 21.1753 22.3686 21.1753 22.2946C21.1753 22.1518 21.1869 21.9857 21.1969 21.8129V21.7581V21.7299V21.705V21.6502V21.6219V21.597V21.5688V21.6601V21.6037V21.5489V21.494V21.4608C21.1969 21.0422 21.1221 20.6785 20.7849 20.617H20.4162C20.3964 20.6197 20.3763 20.6197 20.3564 20.617C20.3564 20.7732 20.3564 20.9359 20.3431 21.0937V21.2598C20.3332 21.4143 20.3249 21.5638 20.3249 21.7066C20.3249 21.7807 20.2955 21.8516 20.2431 21.904C20.1908 21.9563 20.1198 21.9857 20.0458 21.9857C19.9718 21.9857 19.9008 21.9563 19.8485 21.904C19.7962 21.8516 19.7668 21.7807 19.7668 21.7066C19.7668 21.5638 19.7784 21.3977 19.7884 21.225V21.1967V21.1718V21.1452V21.117V21.0888V21.0605V21.0074V20.9808V20.9526V20.9293V20.9011V20.8728V20.8612C19.8016 20.3895 19.7502 19.9543 19.3781 19.8862H19.0193C18.9951 19.8864 18.9711 19.883 18.9479 19.8762V20.9542C18.9479 21.0282 18.9185 21.0992 18.8662 21.1515C18.8138 21.2039 18.7429 21.2333 18.6688 21.2333C18.5948 21.2333 18.5239 21.2039 18.4715 21.1515C18.4192 21.0992 18.3898 21.0282 18.3898 20.9542V19.5922C18.3898 19.2069 18.0078 19.0408 17.6507 19.0408C17.5502 19.041 17.4512 19.0649 17.3616 19.1105C17.1765 19.2215 17.0419 19.4002 16.9863 19.6088L16.9962 19.5955ZM16.3617 21.6269L16.0993 21.519C15.98 21.4703 15.858 21.4287 15.7339 21.3944L16.1342 21.7266L16.3617 21.9126V21.6269Z" fill="#FF9900"/>
</g>
<defs>
<clipPath id="clip0_161_4663">
<rect width="20" height="20.4103" fill="white" transform="translate(10.5 10)"/>
</clipPath>
</defs>
</svg>
