<svg width="41" height="40" viewBox="0 0 41 40" fill="none" xmlns="http://www.w3.org/2000/svg">
<rect x="0.5" width="40" height="40" rx="20" fill="#FFF8EC"/>
<g clip-path="url(#clip0_161_4729)">
<path fill-rule="evenodd" clip-rule="evenodd" d="M16.6894 17.5013H17.6062C17.6708 17.5013 17.7327 17.5269 17.7783 17.5726C17.824 17.6182 17.8496 17.6801 17.8496 17.7446V18.6015C17.8492 18.6657 17.8233 18.7272 17.7777 18.7725C17.7321 18.8178 17.6705 18.8432 17.6062 18.8432H16.6894C16.6251 18.8432 16.5635 18.8178 16.5179 18.7725C16.4723 18.7272 16.4465 18.6657 16.446 18.6015V17.748C16.4456 17.7157 16.4516 17.6837 16.4636 17.6538C16.4756 17.6239 16.4935 17.5967 16.5161 17.5737C16.5388 17.5508 16.5657 17.5325 16.5955 17.5201C16.6252 17.5077 16.6572 17.5013 16.6894 17.5013ZM24.0473 19.0115L24.5024 19.7366H23.7856L23.4522 19.1132H23.2688V19.7366H22.6187V17.8563H23.6389C23.841 17.8435 24.0412 17.9025 24.204 18.023C24.268 18.0755 24.3191 18.1421 24.3532 18.2176C24.3873 18.293 24.4036 18.3753 24.4007 18.4581C24.4068 18.5456 24.3924 18.6332 24.3589 18.7142C24.3253 18.7952 24.2735 18.8673 24.2073 18.9248C24.157 18.9645 24.1007 18.996 24.0406 19.0182L24.0473 19.0115ZM23.5272 18.6781C23.5827 18.6817 23.6379 18.6684 23.6856 18.6398C23.719 18.6027 23.7374 18.5546 23.7374 18.5048C23.7374 18.4549 23.719 18.4068 23.6856 18.3698C23.6385 18.3398 23.5829 18.3257 23.5272 18.3297H23.2705V18.6781H23.5272ZM22.447 17.858L21.8103 19.7366H21.0218L20.3867 17.8563H21.0785L21.3352 18.8848L21.4252 19.2516L21.5119 18.8898L21.7769 17.8563L22.447 17.858ZM14.6674 13.6956C17.3695 10.3467 20.5017 8.52478 22.8354 11.5003C25.1125 11.6203 26.2893 14.5558 25.4842 16.6828C25.5009 16.6961 25.5175 16.7128 25.5342 16.7278C25.6166 16.8059 25.6822 16.9 25.7269 17.0044C25.7716 17.1087 25.7945 17.2211 25.7943 17.3346C25.7943 17.3529 25.7943 17.3729 25.7943 17.3963L25.6909 18.7015C25.815 18.8748 25.8799 19.0835 25.8759 19.2966C25.8609 19.4366 25.7092 19.58 25.6109 19.72L25.5692 20.2567C25.5525 20.4905 25.4525 20.7105 25.2875 20.8768C25.2063 20.9576 25.1097 21.0213 25.0035 21.0642C24.8973 21.1072 24.7836 21.1285 24.6691 21.1269H24.4574C24.3407 22.057 23.8373 22.6271 23.1988 23.2506C23.8206 25.5026 25.3959 25.7993 26.8778 26.0844C28.7531 26.4378 30.5 26.7678 30.5 30.1901C30.5 30.2689 30.4688 30.3445 30.4132 30.4005C30.3576 30.4564 30.2822 30.488 30.2033 30.4884H10.7984C10.7588 30.4884 10.7196 30.4806 10.6831 30.4653C10.6465 30.4499 10.6134 30.4275 10.5856 30.3993C10.5579 30.371 10.536 30.3376 10.5213 30.3008C10.5066 30.264 10.4994 30.2247 10.5 30.1851C10.5 26.7261 12.3537 26.4661 14.334 26.1844C15.8793 25.9677 17.5095 25.7376 18.1296 23.5573L18.118 23.5473L18.0313 23.4673C17.3028 22.8355 16.6677 22.2604 16.4644 21.1269H16.221C16.1056 21.1272 15.9914 21.1046 15.8849 21.0602C15.7784 21.0158 15.6819 20.9507 15.6009 20.8685C15.4379 20.7009 15.3389 20.4815 15.3208 20.2484L15.2808 19.7383C15.1407 19.5751 15.0443 19.3789 15.0008 19.1682C15.004 18.9764 15.0708 18.7911 15.1908 18.6415L15.0925 17.3946C15.0925 17.3713 15.0925 17.3512 15.0925 17.3312C15.0936 17.2202 15.1169 17.1105 15.1609 17.0086C15.205 16.9067 15.269 16.8146 15.3492 16.7378C15.4858 16.6036 15.6604 16.5146 15.8493 16.4828C15.8193 15.2992 15.6942 14.0157 14.6574 13.7023L14.6674 13.6956ZM24.0923 16.4644C24.0543 16.1112 23.9586 15.7665 23.8089 15.4443C23.5463 14.9212 23.1202 14.4981 22.5954 14.2391C21.5185 15.0642 20.7584 15.1675 20.0016 15.2526C19.3765 15.3292 18.7514 15.4076 17.9246 15.9794C17.7271 16.1124 17.552 16.2761 17.4062 16.4644H24.0923ZM23.8973 21.1319H21.0018C20.9961 21.1374 20.99 21.1424 20.9835 21.1469C20.9139 21.2035 20.8357 21.2485 20.7518 21.2802C20.6702 21.3107 20.5838 21.326 20.4967 21.3252C20.4113 21.3226 20.3269 21.3063 20.2467 21.2769C20.1652 21.2462 20.0896 21.2016 20.0233 21.1452L20.0016 21.1269H17.0261C17.2245 22.027 17.7713 22.5188 18.3847 23.0622L18.4747 23.1405C18.8197 23.4588 19.2211 23.7098 19.6582 23.8807C20.0668 23.9952 20.494 24.0275 20.9151 23.9757C21.0839 23.9564 21.2511 23.9246 21.4152 23.8807C21.8285 23.7117 22.2041 23.4624 22.5204 23.1472L22.5937 23.0755C23.2305 22.4621 23.7606 21.9537 23.8973 21.1269V21.1319ZM24.8974 17.0445H15.9693C15.8874 17.0513 15.8103 17.086 15.7509 17.1429C15.7256 17.1667 15.7051 17.1954 15.6908 17.2271C15.6765 17.2589 15.6686 17.2931 15.6676 17.3279V17.3479L15.8926 20.2067C15.8984 20.3016 15.9367 20.3917 16.001 20.4618C16.0287 20.4903 16.0618 20.513 16.0985 20.5284C16.1352 20.5439 16.1745 20.5518 16.2143 20.5518H24.6691C24.7086 20.5516 24.7476 20.5436 24.784 20.5281C24.8204 20.5127 24.8533 20.4901 24.8808 20.4618C24.9484 20.3919 24.9892 20.3004 24.9958 20.2034L25.2208 17.3446V17.3346C25.2198 17.2998 25.2119 17.2655 25.1976 17.2338C25.1833 17.202 25.1628 17.1734 25.1375 17.1495C25.0788 17.0915 25.0014 17.0561 24.9191 17.0495L24.8974 17.0445ZM19.0281 21.7737H21.7969C22.0553 21.7636 22.1203 21.8987 22.0353 22.087C21.2935 23.754 18.8564 22.9338 18.8231 22.0637C18.8231 21.9353 18.8848 21.7837 19.0281 21.7737ZM19.3615 22.3654L19.2365 22.042H21.6469L21.5385 22.3654H19.3615ZM17.0528 26.046C18.1351 26.656 19.3653 26.9538 20.6067 26.9062C21.8676 26.8745 23.0916 26.4741 24.1273 25.7543C23.5689 25.3559 23.0905 24.7641 22.7621 23.844C22.253 24.2544 21.6345 24.5059 20.9835 24.5674C20.2015 24.671 19.4073 24.5128 18.7247 24.1174C18.6797 24.0907 18.6381 24.064 18.5947 24.034C18.2447 25.0525 17.6996 25.661 17.0528 26.046ZM24.6841 26.081C23.5138 26.9691 22.0937 27.4666 20.6251 27.5029C19.135 27.5619 17.663 27.1603 16.4094 26.3527C15.7598 26.5664 15.0892 26.71 14.409 26.7812C12.7588 27.0029 11.2085 27.2279 11.1018 29.8867H29.8999C29.7983 27.2362 28.3363 26.9595 26.7694 26.6695C26.0626 26.5361 25.3392 26.3994 24.6841 26.086V26.081ZM17.1478 17.8163C17.219 17.8163 17.2885 17.8375 17.3476 17.8772C17.4067 17.9169 17.4526 17.9733 17.4795 18.0392C17.5064 18.105 17.5131 18.1774 17.4988 18.2471C17.4844 18.3168 17.4496 18.3807 17.3988 18.4305C17.348 18.4804 17.2835 18.514 17.2136 18.527C17.1436 18.5401 17.0713 18.532 17.006 18.5039C16.9406 18.4757 16.8851 18.4288 16.8466 18.3689C16.808 18.3091 16.7881 18.2392 16.7894 18.168C16.7894 18.073 16.8272 17.9818 16.8944 17.9146C16.9616 17.8474 17.0528 17.8097 17.1478 17.8097V17.8163Z" fill="#FF9900"/>
</g>
<defs>
<clipPath id="clip0_161_4729">
<rect width="20" height="20.4834" fill="white" transform="translate(10.5 10)"/>
</clipPath>
</defs>
</svg>
