<svg width="41" height="40" viewBox="0 0 41 40" fill="none" xmlns="http://www.w3.org/2000/svg">
<rect x="0.5" width="40" height="40" rx="20" fill="#FFF8EC"/>
<g clip-path="url(#clip0_161_4620)">
<path fill-rule="evenodd" clip-rule="evenodd" d="M13.6559 21.5534V28.0378C13.6551 28.1163 13.6234 28.1914 13.5676 28.2469C13.5119 28.3023 13.4367 28.3336 13.3581 28.334H10.7979C10.7191 28.334 10.6436 28.3028 10.5878 28.2473C10.532 28.1918 10.5004 28.1165 10.5 28.0378V21.5534H13.6559ZM10.5 19.4359L17.2692 13.513C18.7682 14.9779 20.2217 16.7568 21.7044 18.2217L27.113 12.7904L25.3714 11.0456L30.5 11V16.1725L28.8285 14.501C27.6289 15.7168 24.792 18.3942 23.5924 19.5954C22.0739 21.1123 21.3496 21.14 19.8327 19.623L17.2692 16.7715L14.2646 19.4359H10.5ZM29.1149 17.2972V28.0394C29.1141 28.1177 29.0826 28.1925 29.0272 28.2479C28.9718 28.3033 28.897 28.3348 28.8187 28.3356H26.2568C26.1785 28.3343 26.1039 28.3024 26.0488 28.2468C25.9937 28.1911 25.9627 28.1161 25.9622 28.0378V20.3245C26.4505 19.8509 27.0202 19.3008 27.6012 18.7409L28.8138 17.5739C28.9104 17.4764 29.012 17.3841 29.1182 17.2972H29.1149ZM23.9619 22.123V28.0378C23.9611 28.1163 23.9294 28.1914 23.8736 28.2469C23.8179 28.3023 23.7426 28.3336 23.6641 28.334H21.1038C21.0253 28.3336 20.95 28.3023 20.8943 28.2469C20.8385 28.1914 20.8068 28.1163 20.806 28.0378V22.7546C21.1112 22.8286 21.4246 22.8631 21.7386 22.8571C22.5373 22.8455 23.3133 22.5893 23.9619 22.123ZM18.8089 21.6348V28.0296C18.8081 28.1082 18.7764 28.1833 18.7206 28.2387C18.6649 28.2941 18.5897 28.3254 18.5111 28.3258H15.9492C15.8708 28.3254 15.7957 28.2941 15.7402 28.2386C15.6848 28.1832 15.6534 28.1081 15.653 28.0296V21.0911C15.7051 21.0521 15.7555 21.0114 15.8044 20.9691L17.0837 19.8298L18.1156 20.9691L18.1953 21.0521C18.4036 21.2615 18.6082 21.4525 18.8089 21.625V21.6348Z" fill="#FF9900"/>
</g>
<defs>
<clipPath id="clip0_161_4620">
<rect width="20" height="17.334" fill="white" transform="translate(10.5 11)"/>
</clipPath>
</defs>
</svg>
