<svg width="41" height="40" viewBox="0 0 41 40" fill="none" xmlns="http://www.w3.org/2000/svg">
<rect x="0.5" width="40" height="40" rx="20" fill="#FFF8EC"/>
<g clip-path="url(#clip0_161_4641)">
<path fill-rule="evenodd" clip-rule="evenodd" d="M12.4405 26.3186C12.3755 25.6334 12.3848 24.9667 12.3699 24.2833L11.2223 24.2406C10.5742 24.2276 10.2269 23.5275 10.7617 22.7086L11.6494 20.8924C12.2975 19.5665 12.0412 19.8154 12.0876 18.4189C12.1173 17.5164 12.2863 16.6993 12.693 16.0233C12.0449 15.7392 11.395 15.457 10.7469 15.1747C22.7766 -1.50126 39.1313 20.1292 25.0867 27.0688L25.7311 31.8191H17.0403C17.2501 29.561 18.316 30.0642 15.6735 30.5396C13.317 30.963 11.4711 30.4115 12.6633 28.0419C12.5445 27.5015 12.4627 26.8831 12.4405 26.3186ZM20.2232 15.7002C20.2956 15.6278 20.3848 15.5907 20.4832 15.5907C20.5816 15.5907 20.6707 15.6278 20.7432 15.7002L21.1368 16.0939C21.2427 16.0252 21.356 15.9639 21.473 15.9119C21.59 15.8562 21.7088 15.8135 21.8295 15.7708V15.1654C21.8295 15.0633 21.8629 14.9779 21.9354 14.9054C22.0078 14.833 22.0932 14.7996 22.1953 14.7996H22.9549C23.0514 14.7996 23.1368 14.833 23.2111 14.9054C23.2835 14.9779 23.3207 15.0633 23.3207 15.1654V15.7207C23.447 15.7522 23.5714 15.7894 23.6902 15.8339C23.8109 15.8785 23.9224 15.9324 24.0301 15.9918L24.4683 15.561C24.537 15.4885 24.6187 15.4514 24.7209 15.4514C24.8193 15.4514 24.9066 15.4885 24.9809 15.561L25.512 16.0958C25.5844 16.1682 25.6215 16.2573 25.6215 16.3558C25.6215 16.4542 25.5844 16.5433 25.512 16.6157L25.1183 17.0094C25.187 17.1153 25.2445 17.2285 25.3003 17.3455C25.356 17.4625 25.3987 17.5814 25.4414 17.7058H26.0468C26.1489 17.7058 26.2343 17.7392 26.3068 17.8117C26.3792 17.8841 26.4126 17.9695 26.4126 18.0716V18.8311C26.4126 18.9277 26.3792 19.0131 26.3068 19.0874C26.2343 19.1598 26.1489 19.197 26.0468 19.197H25.4915C25.46 19.3233 25.4228 19.4477 25.3783 19.5665C25.3337 19.6872 25.2798 19.8024 25.2204 19.9156L25.6512 20.3465C25.7237 20.4152 25.7608 20.4969 25.7608 20.599C25.7608 20.6974 25.7237 20.7847 25.6512 20.859L25.1164 21.3994C25.044 21.4681 24.9549 21.5015 24.8564 21.5015C24.758 21.5015 24.6689 21.4681 24.5965 21.3994L24.2028 20.9983C24.0969 21.067 23.9836 21.1246 23.8666 21.1803C23.7497 21.236 23.6308 21.2787 23.5101 21.3214V21.9268C23.5101 22.0289 23.4767 22.1143 23.4043 22.1868C23.3318 22.2592 23.2464 22.2926 23.1443 22.2926H22.3848C22.2882 22.2926 22.2028 22.2592 22.1285 22.1868C22.0561 22.1143 22.0189 22.0289 22.0189 21.9268V21.3715C21.8926 21.34 21.7682 21.3028 21.6494 21.2583C21.5287 21.2137 21.4135 21.1598 21.3003 21.1004L20.8694 21.5312C20.8007 21.6037 20.7153 21.6408 20.6132 21.6408C20.511 21.6408 20.4256 21.6037 20.3569 21.5312L19.8165 20.9964C19.7478 20.9203 19.7144 20.8349 19.7144 20.7364C19.7144 20.638 19.7478 20.5489 19.8165 20.4765L20.2176 20.0828C20.1489 19.9769 20.0913 19.8636 20.0356 19.7467C19.9799 19.6297 19.9372 19.5108 19.8945 19.3901H19.2891C19.187 19.3901 19.1016 19.3567 19.0291 19.2843C18.9567 19.2118 18.9233 19.1264 18.9233 19.0243V18.2648C18.9233 18.1682 18.9567 18.0828 19.0291 18.0085C19.1016 17.9361 19.187 17.8989 19.2891 17.8989H19.8444C19.8759 17.7764 19.9131 17.6557 19.9576 17.5331C20.0022 17.4105 20.0561 17.2973 20.1155 17.1877L19.6847 16.7494C19.6122 16.6807 19.5751 16.599 19.5751 16.4969C19.5751 16.3985 19.6122 16.3112 19.6847 16.2369L20.2195 15.7058L20.2232 15.7002ZM16.0152 19.7857C16.0635 19.7522 16.1118 19.7411 16.1656 19.7522C16.2213 19.7634 16.264 19.7894 16.2956 19.8376L16.4739 20.0883C16.5389 20.0605 16.6039 20.0401 16.6726 20.0196C16.7413 20.0029 16.81 19.9881 16.8806 19.9788L16.9381 19.6501C16.9493 19.5944 16.9753 19.5517 17.0199 19.5201C17.0644 19.4885 17.1164 19.4792 17.1703 19.4867L17.5807 19.5591C17.6327 19.5702 17.6772 19.5962 17.7107 19.6408C17.7422 19.6854 17.7552 19.7374 17.7441 19.7912L17.6921 20.0921C17.7571 20.1199 17.8221 20.1533 17.8796 20.1886C17.9409 20.2258 17.9966 20.2648 18.0505 20.3056L18.3272 20.1143C18.3718 20.0809 18.42 20.0698 18.4739 20.0809C18.5296 20.0921 18.5705 20.1181 18.6039 20.1663L18.8434 20.5062C18.8769 20.5545 18.888 20.6027 18.8769 20.6566C18.8657 20.7123 18.8397 20.755 18.7914 20.7866L18.5407 20.9649C18.5686 21.0299 18.589 21.0948 18.6095 21.1636C18.6262 21.2323 18.641 21.301 18.6503 21.3715L18.979 21.4291C19.0347 21.4402 19.0774 21.4662 19.109 21.5108C19.1406 21.5554 19.1498 21.6074 19.1424 21.6612L19.07 22.0716C19.0588 22.1236 19.0329 22.1682 18.9883 22.2016C18.9437 22.2332 18.8917 22.2462 18.8379 22.235L18.537 22.1831C18.5092 22.248 18.4757 22.313 18.4405 22.3706C18.4033 22.4319 18.3643 22.4913 18.3235 22.5452L18.5147 22.8182C18.5482 22.8627 18.5593 22.911 18.5482 22.9649C18.537 23.0206 18.511 23.0614 18.4627 23.0948L18.1229 23.3381C18.0746 23.3697 18.0264 23.379 17.9725 23.3697C17.9168 23.3585 17.8741 23.3325 17.8425 23.2917L17.6642 23.0391C17.5992 23.067 17.5342 23.0874 17.4655 23.1078C17.3968 23.1246 17.3281 23.1394 17.2575 23.1487L17.2 23.4774C17.1888 23.5331 17.1628 23.5758 17.1183 23.6074C17.0737 23.639 17.0217 23.6482 16.9679 23.6408L16.5575 23.5684C16.5055 23.5572 16.4609 23.5312 16.4275 23.4867C16.3959 23.4421 16.3829 23.3901 16.394 23.3363L16.446 23.0354C16.381 23.0076 16.316 22.9741 16.2585 22.9389C16.1972 22.9017 16.1378 22.8627 16.0839 22.8219L15.8091 23.0131C15.7645 23.0466 15.7162 23.0577 15.6587 23.0466C15.6048 23.0354 15.5602 23.0094 15.5287 22.9649L15.2854 22.625C15.2538 22.5767 15.2446 22.5285 15.2538 22.4746C15.265 22.4208 15.2873 22.3762 15.3318 22.3446L15.5881 22.1663C15.5602 22.1013 15.5398 22.0364 15.5194 21.9676C15.5027 21.8989 15.4878 21.8302 15.4785 21.7597L15.1498 21.7021C15.096 21.6909 15.0514 21.6649 15.0199 21.6204C14.9883 21.5758 14.979 21.5238 14.9864 21.47L15.0588 21.0596C15.07 21.0076 15.096 20.963 15.1406 20.9296C15.1851 20.8961 15.2371 20.885 15.291 20.8961L15.5918 20.9481C15.6197 20.8831 15.6494 20.8219 15.6884 20.7606C15.7255 20.6993 15.7645 20.6399 15.8054 20.5897L15.6141 20.313C15.5807 20.2685 15.5695 20.2202 15.5807 20.1663C15.5918 20.1106 15.6178 20.0698 15.6661 20.0363L16.0059 19.7968L16.0152 19.7857ZM17.2 20.833C17.1016 20.8163 17.005 20.82 16.9084 20.8404C16.8119 20.8646 16.7264 20.9017 16.6522 20.9537C16.576 21.0094 16.511 21.0763 16.4572 21.1598C16.4015 21.2415 16.368 21.3344 16.3513 21.4347C16.3346 21.5331 16.3383 21.6297 16.3588 21.7262C16.3829 21.8228 16.42 21.9082 16.472 21.9825C16.5277 22.0586 16.5946 22.1236 16.6782 22.1775C16.7599 22.2332 16.8527 22.2666 16.9511 22.2833C17.0496 22.3 17.1461 22.2963 17.2427 22.2759C17.3393 22.2518 17.4247 22.2146 17.499 22.1626C17.5751 22.1069 17.6401 22.0401 17.6939 21.9565C17.7497 21.8748 17.7831 21.7819 17.7998 21.6817C17.8165 21.5832 17.8128 21.4867 17.7924 21.3901C17.7682 21.2935 17.7311 21.2081 17.6791 21.1338C17.6234 21.0577 17.5565 20.9927 17.473 20.9389C17.3913 20.885 17.2984 20.8516 17.2 20.833ZM22.6707 17.054C22.4646 17.054 22.2733 17.0911 22.0895 17.171C21.9075 17.249 21.7497 17.3567 21.6141 17.4885C21.4804 17.6222 21.3745 17.7838 21.2965 17.9639C21.2186 18.1496 21.1796 18.3409 21.1796 18.5452C21.1796 18.7513 21.2167 18.9426 21.2965 19.1264C21.3745 19.3084 21.4822 19.4662 21.6141 19.6018C21.7478 19.7355 21.9094 19.8414 22.0895 19.9194C22.2715 19.9974 22.4665 20.0363 22.6707 20.0363C22.8769 20.0363 23.0681 19.9992 23.252 19.9194C23.434 19.8414 23.5918 19.7337 23.7274 19.6018C23.8611 19.4681 23.9669 19.3065 24.0449 19.1264C24.1229 18.9444 24.1619 18.7494 24.1619 18.5452C24.1619 18.339 24.1248 18.1478 24.0449 17.9639C23.9669 17.7819 23.8592 17.6241 23.7274 17.4885C23.5937 17.3548 23.4321 17.249 23.252 17.171C23.0681 17.0911 22.8769 17.054 22.6707 17.054Z" fill="#FF9900"/>
</g>
<defs>
<clipPath id="clip0_161_4641">
<rect width="20" height="22.8189" fill="white" transform="translate(10.5 9)"/>
</clipPath>
</defs>
</svg>
